%TF.GenerationSoftware,KiCad,Pcbnew,(7.0.0)*%
%TF.CreationDate,2023-06-10T23:20:28+02:00*%
%TF.ProjectId,TMP117 Breakout,544d5031-3137-4204-9272-65616b6f7574,rev?*%
%TF.SameCoordinates,Original*%
%TF.FileFunction,Copper,L1,Top*%
%TF.FilePolarity,Positive*%
%FSLAX46Y46*%
G04 Gerber Fmt 4.6, Leading zero omitted, Abs format (unit mm)*
G04 Created by KiCad (PCBNEW (7.0.0)) date 2023-06-10 23:20:28*
%MOMM*%
%LPD*%
G01*
G04 APERTURE LIST*
G04 Aperture macros list*
%AMRoundRect*
0 Rectangle with rounded corners*
0 $1 Rounding radius*
0 $2 $3 $4 $5 $6 $7 $8 $9 X,Y pos of 4 corners*
0 Add a 4 corners polygon primitive as box body*
4,1,4,$2,$3,$4,$5,$6,$7,$8,$9,$2,$3,0*
0 Add four circle primitives for the rounded corners*
1,1,$1+$1,$2,$3*
1,1,$1+$1,$4,$5*
1,1,$1+$1,$6,$7*
1,1,$1+$1,$8,$9*
0 Add four rect primitives between the rounded corners*
20,1,$1+$1,$2,$3,$4,$5,0*
20,1,$1+$1,$4,$5,$6,$7,0*
20,1,$1+$1,$6,$7,$8,$9,0*
20,1,$1+$1,$8,$9,$2,$3,0*%
G04 Aperture macros list end*
%TA.AperFunction,ComponentPad*%
%ADD10C,0.800000*%
%TD*%
%TA.AperFunction,ComponentPad*%
%ADD11C,6.400000*%
%TD*%
%TA.AperFunction,SMDPad,CuDef*%
%ADD12RoundRect,0.200000X0.275000X-0.200000X0.275000X0.200000X-0.275000X0.200000X-0.275000X-0.200000X0*%
%TD*%
%TA.AperFunction,SMDPad,CuDef*%
%ADD13RoundRect,0.225000X0.225000X0.250000X-0.225000X0.250000X-0.225000X-0.250000X0.225000X-0.250000X0*%
%TD*%
%TA.AperFunction,ComponentPad*%
%ADD14RoundRect,0.425000X0.425000X-0.425000X0.425000X0.425000X-0.425000X0.425000X-0.425000X-0.425000X0*%
%TD*%
%TA.AperFunction,SMDPad,CuDef*%
%ADD15R,1.000000X1.600000*%
%TD*%
%TA.AperFunction,SMDPad,CuDef*%
%ADD16RoundRect,0.093750X-0.093750X-0.106250X0.093750X-0.106250X0.093750X0.106250X-0.093750X0.106250X0*%
%TD*%
%TA.AperFunction,ViaPad*%
%ADD17C,0.609600*%
%TD*%
%TA.AperFunction,Conductor*%
%ADD18C,0.381000*%
%TD*%
G04 APERTURE END LIST*
D10*
%TO.P,H2,1*%
%TO.N,N/C*%
X129100000Y-99500000D03*
X129802944Y-101197056D03*
X129802944Y-97802944D03*
X131500000Y-101900000D03*
D11*
X131500000Y-99500000D03*
D10*
X133900000Y-99500000D03*
X133197056Y-97802944D03*
X133197056Y-101197056D03*
X131500000Y-97100000D03*
%TD*%
%TO.P,H1,1*%
%TO.N,N/C*%
X148500000Y-97100000D03*
X150197056Y-101197056D03*
X150197056Y-97802944D03*
X150900000Y-99500000D03*
D11*
X148500000Y-99500000D03*
D10*
X148500000Y-101900000D03*
X146802944Y-97802944D03*
X146802944Y-101197056D03*
X146100000Y-99500000D03*
%TD*%
D12*
%TO.P,R3,1*%
%TO.N,VCC*%
X133650000Y-94635000D03*
%TO.P,R3,2*%
%TO.N,/ALERT*%
X133650000Y-92985000D03*
%TD*%
D13*
%TO.P,C1,1*%
%TO.N,VCC*%
X140775000Y-98300000D03*
%TO.P,C1,2*%
%TO.N,GND*%
X139225000Y-98300000D03*
%TD*%
D12*
%TO.P,R2,1*%
%TO.N,VCC*%
X136200000Y-94635000D03*
%TO.P,R2,2*%
%TO.N,/SCL*%
X136200000Y-92985000D03*
%TD*%
%TO.P,R1,1*%
%TO.N,VCC*%
X143810000Y-94635000D03*
%TO.P,R1,2*%
%TO.N,/SDA*%
X143810000Y-92985000D03*
%TD*%
D14*
%TO.P,J1,1,Pin_1*%
%TO.N,/ALERT*%
X133650000Y-90635000D03*
X133650000Y-89365000D03*
%TO.P,J1,2,Pin_2*%
%TO.N,/SCL*%
X136190000Y-90635000D03*
X136190000Y-89365000D03*
%TO.P,J1,3,Pin_3*%
%TO.N,GND*%
X138730000Y-90635000D03*
X138730000Y-89365000D03*
%TO.P,J1,4,Pin_4*%
%TO.N,VCC*%
X141270000Y-90635000D03*
X141270000Y-89365000D03*
%TO.P,J1,5,Pin_5*%
%TO.N,/SDA*%
X143810000Y-90635000D03*
X143810000Y-89365000D03*
%TO.P,J1,6,Pin_6*%
%TO.N,/ADD0*%
X146350000Y-90635000D03*
X146350000Y-89365000D03*
%TD*%
D15*
%TO.P,U1,7,EP*%
%TO.N,/EP*%
X139999999Y-99999999D03*
D16*
%TO.P,U1,6,SDA*%
%TO.N,/SDA*%
X140887500Y-99350000D03*
%TO.P,U1,5,V+*%
%TO.N,VCC*%
X140887500Y-100000000D03*
%TO.P,U1,4,ADD0*%
%TO.N,/ADD0*%
X140887500Y-100650000D03*
%TO.P,U1,3,ALERT*%
%TO.N,/ALERT*%
X139112500Y-100650000D03*
%TO.P,U1,2,GND*%
%TO.N,GND*%
X139112500Y-100000000D03*
%TO.P,U1,1,SCL*%
%TO.N,/SCL*%
X139112500Y-99350000D03*
%TD*%
D17*
%TO.N,GND*%
X138400000Y-98300000D03*
%TO.N,/SCL*%
X138400000Y-99300000D03*
%TO.N,/ALERT*%
X138400000Y-100700000D03*
%TO.N,/ADD0*%
X141600000Y-100700000D03*
%TO.N,/SDA*%
X141600000Y-99300000D03*
%TO.N,VCC*%
X141600000Y-98300000D03*
%TO.N,/EP*%
X140000000Y-99600000D03*
X140000000Y-100400000D03*
%TD*%
D18*
%TO.N,/SCL*%
X136200000Y-92985000D02*
X136200000Y-90645000D01*
X136200000Y-90645000D02*
X136190000Y-90635000D01*
%TO.N,/ALERT*%
X133650000Y-92985000D02*
X133650000Y-90635000D01*
%TO.N,/SDA*%
X143810000Y-92985000D02*
X143810000Y-90635000D01*
%TD*%
%TA.AperFunction,Conductor*%
%TO.N,GND*%
G36*
X139580949Y-97802130D02*
G01*
X139620324Y-97812680D01*
X139648341Y-97828856D01*
X139671143Y-97851658D01*
X139687319Y-97879675D01*
X139697870Y-97919050D01*
X139700000Y-97935227D01*
X139700000Y-98664773D01*
X139697870Y-98680950D01*
X139687319Y-98720324D01*
X139671143Y-98748341D01*
X139648341Y-98771143D01*
X139620324Y-98787319D01*
X139595015Y-98794100D01*
X139580948Y-98797870D01*
X139564773Y-98800000D01*
X139099108Y-98800000D01*
X139089938Y-98799324D01*
X139072908Y-98796798D01*
X139072905Y-98796797D01*
X139072166Y-98796688D01*
X139071434Y-98796615D01*
X139071402Y-98796612D01*
X139060747Y-98795564D01*
X139060743Y-98795563D01*
X139059974Y-98795488D01*
X139059229Y-98795451D01*
X139059210Y-98795450D01*
X139040593Y-98794536D01*
X139040564Y-98794535D01*
X139039845Y-98794500D01*
X138360155Y-98794500D01*
X138359435Y-98794535D01*
X138359407Y-98794536D01*
X138357609Y-98794625D01*
X138354544Y-98794700D01*
X138327349Y-98794700D01*
X138323060Y-98795959D01*
X138323055Y-98795960D01*
X138317922Y-98797468D01*
X138300314Y-98800000D01*
X138027000Y-98800000D01*
X138023046Y-98801059D01*
X138023042Y-98801060D01*
X137971450Y-98814884D01*
X137971447Y-98814885D01*
X137963500Y-98817015D01*
X137957681Y-98822833D01*
X137957679Y-98822835D01*
X137922835Y-98857679D01*
X137922833Y-98857681D01*
X137917015Y-98863500D01*
X137914885Y-98871447D01*
X137914884Y-98871450D01*
X137901060Y-98923042D01*
X137901059Y-98923046D01*
X137900000Y-98927000D01*
X137900000Y-98931096D01*
X137900000Y-99200897D01*
X137899324Y-99210067D01*
X137896801Y-99227072D01*
X137896797Y-99227103D01*
X137896691Y-99227819D01*
X137896617Y-99228567D01*
X137896616Y-99228578D01*
X137895564Y-99239253D01*
X137895561Y-99239287D01*
X137895490Y-99240013D01*
X137895454Y-99240729D01*
X137895452Y-99240767D01*
X137894536Y-99259413D01*
X137894500Y-99260155D01*
X137894500Y-99260898D01*
X137894481Y-99261682D01*
X137894435Y-99261680D01*
X137893863Y-99269676D01*
X137889504Y-99300000D01*
X137890140Y-99304423D01*
X137893864Y-99330324D01*
X137894435Y-99338317D01*
X137894481Y-99338316D01*
X137894500Y-99339103D01*
X137894500Y-99339845D01*
X137894535Y-99340564D01*
X137894536Y-99340593D01*
X137895450Y-99359210D01*
X137895451Y-99359229D01*
X137895488Y-99359974D01*
X137895563Y-99360743D01*
X137895564Y-99360747D01*
X137896612Y-99371402D01*
X137896615Y-99371434D01*
X137896688Y-99372166D01*
X137896797Y-99372905D01*
X137896798Y-99372908D01*
X137899324Y-99389938D01*
X137900000Y-99399108D01*
X137900000Y-99673000D01*
X137901059Y-99676954D01*
X137901060Y-99676957D01*
X137914884Y-99728549D01*
X137914884Y-99728550D01*
X137917015Y-99736500D01*
X137963500Y-99782985D01*
X138027000Y-99800000D01*
X138300313Y-99800000D01*
X138317923Y-99802532D01*
X138327349Y-99805300D01*
X138354543Y-99805300D01*
X138357610Y-99805375D01*
X138357854Y-99805386D01*
X138360155Y-99805500D01*
X139039094Y-99805500D01*
X139039845Y-99805500D01*
X139059992Y-99804510D01*
X139072183Y-99803309D01*
X139089923Y-99800677D01*
X139099096Y-99800000D01*
X139164773Y-99800000D01*
X139180949Y-99802130D01*
X139220324Y-99812680D01*
X139248341Y-99828856D01*
X139271143Y-99851658D01*
X139287319Y-99879675D01*
X139297870Y-99919050D01*
X139300000Y-99935227D01*
X139300000Y-100064773D01*
X139297870Y-100080950D01*
X139287319Y-100120324D01*
X139271143Y-100148341D01*
X139248341Y-100171143D01*
X139220324Y-100187319D01*
X139195015Y-100194100D01*
X139180948Y-100197870D01*
X139164773Y-100200000D01*
X139099108Y-100200000D01*
X139089938Y-100199324D01*
X139072908Y-100196798D01*
X139072905Y-100196797D01*
X139072166Y-100196688D01*
X139071434Y-100196615D01*
X139071402Y-100196612D01*
X139060747Y-100195564D01*
X139060743Y-100195563D01*
X139059974Y-100195488D01*
X139059229Y-100195451D01*
X139059210Y-100195450D01*
X139040593Y-100194536D01*
X139040564Y-100194535D01*
X139039845Y-100194500D01*
X138360155Y-100194500D01*
X138359435Y-100194535D01*
X138359407Y-100194536D01*
X138357609Y-100194625D01*
X138354544Y-100194700D01*
X138327349Y-100194700D01*
X138323060Y-100195959D01*
X138323055Y-100195960D01*
X138317922Y-100197468D01*
X138300314Y-100200000D01*
X137635227Y-100200000D01*
X137619051Y-100197870D01*
X137594521Y-100191297D01*
X137579675Y-100187319D01*
X137551658Y-100171143D01*
X137528856Y-100148341D01*
X137512680Y-100120323D01*
X137502130Y-100080949D01*
X137500000Y-100064773D01*
X137500000Y-97935227D01*
X137502128Y-97919057D01*
X137512681Y-97879672D01*
X137528854Y-97851660D01*
X137551660Y-97828854D01*
X137579672Y-97812681D01*
X137619057Y-97802128D01*
X137635227Y-97800000D01*
X139564773Y-97800000D01*
X139580949Y-97802130D01*
G37*
%TD.AperFunction*%
%TD*%
%TA.AperFunction,Conductor*%
%TO.N,VCC*%
G36*
X142239103Y-89507880D02*
G01*
X142261608Y-89528277D01*
X142273758Y-89546461D01*
X142283090Y-89568990D01*
X142298799Y-89647961D01*
X142300000Y-89660155D01*
X142300000Y-91888635D01*
X142298799Y-91900829D01*
X142283090Y-91979798D01*
X142273758Y-92002327D01*
X142229024Y-92069277D01*
X142221251Y-92078748D01*
X141276567Y-93023432D01*
X141276562Y-93023437D01*
X141274395Y-93025605D01*
X141272694Y-93028150D01*
X141272688Y-93028158D01*
X141222755Y-93102889D01*
X141222753Y-93102893D01*
X141219335Y-93108009D01*
X141218134Y-93114044D01*
X141218133Y-93114048D01*
X141200599Y-93202197D01*
X141200000Y-93205210D01*
X141200000Y-93946000D01*
X141200598Y-93949010D01*
X141200599Y-93949012D01*
X141218133Y-94037163D01*
X141218134Y-94037166D01*
X141219335Y-94043202D01*
X141274395Y-94125605D01*
X141356798Y-94180665D01*
X141454000Y-94200000D01*
X144039845Y-94200000D01*
X144052037Y-94201200D01*
X144131009Y-94216909D01*
X144153539Y-94226242D01*
X144215268Y-94267489D01*
X144232510Y-94284731D01*
X144273757Y-94346460D01*
X144283090Y-94368990D01*
X144298799Y-94447961D01*
X144300000Y-94460155D01*
X144300000Y-94839845D01*
X144298799Y-94852039D01*
X144283090Y-94931009D01*
X144273757Y-94953539D01*
X144232510Y-95015268D01*
X144215268Y-95032510D01*
X144153539Y-95073757D01*
X144131009Y-95083090D01*
X144083570Y-95092526D01*
X144052036Y-95098799D01*
X144039845Y-95100000D01*
X141454000Y-95100000D01*
X141450990Y-95100598D01*
X141450987Y-95100599D01*
X141362836Y-95118133D01*
X141362831Y-95118134D01*
X141356798Y-95119335D01*
X141351682Y-95122753D01*
X141351678Y-95122755D01*
X141279512Y-95170975D01*
X141279509Y-95170977D01*
X141274395Y-95174395D01*
X141270977Y-95179509D01*
X141270975Y-95179512D01*
X141222755Y-95251678D01*
X141222753Y-95251682D01*
X141219335Y-95256798D01*
X141218134Y-95262831D01*
X141218133Y-95262836D01*
X141200599Y-95350987D01*
X141200000Y-95354000D01*
X141200000Y-97546000D01*
X141200598Y-97549010D01*
X141200599Y-97549012D01*
X141218133Y-97637163D01*
X141218134Y-97637166D01*
X141219335Y-97643202D01*
X141274395Y-97725605D01*
X141356798Y-97780665D01*
X141454000Y-97800000D01*
X142239845Y-97800000D01*
X142252037Y-97801200D01*
X142331009Y-97816909D01*
X142353539Y-97826242D01*
X142415268Y-97867489D01*
X142432510Y-97884731D01*
X142473757Y-97946460D01*
X142483090Y-97968990D01*
X142498799Y-98047961D01*
X142500000Y-98060155D01*
X142500000Y-99939845D01*
X142498799Y-99952039D01*
X142483090Y-100031009D01*
X142473757Y-100053539D01*
X142432510Y-100115268D01*
X142415268Y-100132510D01*
X142353539Y-100173757D01*
X142331009Y-100183090D01*
X142283570Y-100192526D01*
X142252036Y-100198799D01*
X142239845Y-100200000D01*
X141699689Y-100200000D01*
X141682082Y-100197469D01*
X141676937Y-100195958D01*
X141676934Y-100195957D01*
X141672651Y-100194700D01*
X141668182Y-100194700D01*
X141645456Y-100194700D01*
X141642392Y-100194625D01*
X141640594Y-100194536D01*
X141640563Y-100194535D01*
X141639845Y-100194500D01*
X140960155Y-100194500D01*
X140959436Y-100194535D01*
X140959406Y-100194536D01*
X140940798Y-100195450D01*
X140940789Y-100195450D01*
X140940028Y-100195488D01*
X140939284Y-100195561D01*
X140939246Y-100195564D01*
X140928614Y-100196611D01*
X140928600Y-100196612D01*
X140927835Y-100196688D01*
X140927086Y-100196799D01*
X140927054Y-100196803D01*
X140913072Y-100198876D01*
X140891714Y-100198351D01*
X140835658Y-100187201D01*
X140813127Y-100177869D01*
X140768915Y-100148327D01*
X140751672Y-100131084D01*
X140722130Y-100086872D01*
X140712798Y-100064341D01*
X140702425Y-100012192D01*
X140702425Y-99987809D01*
X140712798Y-99935656D01*
X140722130Y-99913127D01*
X140751673Y-99868913D01*
X140768913Y-99851673D01*
X140813128Y-99822129D01*
X140835656Y-99812798D01*
X140891720Y-99801646D01*
X140913081Y-99801123D01*
X140927817Y-99803309D01*
X140940009Y-99804510D01*
X140960155Y-99805500D01*
X141639095Y-99805500D01*
X141639845Y-99805500D01*
X141642169Y-99805385D01*
X141642390Y-99805375D01*
X141645457Y-99805300D01*
X141668179Y-99805300D01*
X141672651Y-99805300D01*
X141682076Y-99802532D01*
X141699687Y-99800000D01*
X141842929Y-99800000D01*
X141846000Y-99800000D01*
X141943202Y-99780665D01*
X142025605Y-99725605D01*
X142080665Y-99643202D01*
X142100000Y-99546000D01*
X142100000Y-99399103D01*
X142100676Y-99389934D01*
X142103196Y-99372941D01*
X142103309Y-99372181D01*
X142104510Y-99359987D01*
X142105500Y-99339845D01*
X142105500Y-99339088D01*
X142105519Y-99338318D01*
X142105564Y-99338319D01*
X142106136Y-99330324D01*
X142109860Y-99304423D01*
X142110496Y-99300000D01*
X142106136Y-99269676D01*
X142105564Y-99261680D01*
X142105519Y-99261682D01*
X142105500Y-99260912D01*
X142105500Y-99260155D01*
X142104510Y-99240013D01*
X142103309Y-99227819D01*
X142100676Y-99210066D01*
X142100000Y-99200897D01*
X142100000Y-99057071D01*
X142100000Y-99054000D01*
X142080665Y-98956798D01*
X142025605Y-98874395D01*
X142020487Y-98870975D01*
X141948321Y-98822755D01*
X141948319Y-98822754D01*
X141943202Y-98819335D01*
X141937166Y-98818134D01*
X141937163Y-98818133D01*
X141849012Y-98800599D01*
X141849010Y-98800598D01*
X141846000Y-98800000D01*
X141842929Y-98800000D01*
X141699689Y-98800000D01*
X141682082Y-98797469D01*
X141676937Y-98795958D01*
X141676934Y-98795957D01*
X141672651Y-98794700D01*
X141668182Y-98794700D01*
X141645456Y-98794700D01*
X141642392Y-98794625D01*
X141640594Y-98794536D01*
X141640563Y-98794535D01*
X141639845Y-98794500D01*
X140960155Y-98794500D01*
X140959436Y-98794535D01*
X140959406Y-98794536D01*
X140940798Y-98795450D01*
X140940789Y-98795450D01*
X140940028Y-98795488D01*
X140939284Y-98795561D01*
X140939246Y-98795564D01*
X140928614Y-98796611D01*
X140928600Y-98796612D01*
X140927835Y-98796688D01*
X140927112Y-98796795D01*
X140927073Y-98796800D01*
X140910060Y-98799324D01*
X140900892Y-98800000D01*
X140560155Y-98800000D01*
X140547963Y-98798799D01*
X140501890Y-98789634D01*
X140468990Y-98783090D01*
X140446460Y-98773757D01*
X140384731Y-98732510D01*
X140367489Y-98715268D01*
X140326242Y-98653539D01*
X140316909Y-98631008D01*
X140301201Y-98552038D01*
X140300000Y-98539845D01*
X140300000Y-95357071D01*
X140300000Y-95354000D01*
X140280665Y-95256798D01*
X140225605Y-95174395D01*
X140220487Y-95170975D01*
X140148321Y-95122755D01*
X140148319Y-95122754D01*
X140143202Y-95119335D01*
X140137166Y-95118134D01*
X140137163Y-95118133D01*
X140049012Y-95100599D01*
X140049010Y-95100598D01*
X140046000Y-95100000D01*
X140042929Y-95100000D01*
X133360155Y-95100000D01*
X133347963Y-95098799D01*
X133301890Y-95089634D01*
X133268990Y-95083090D01*
X133246460Y-95073757D01*
X133184731Y-95032510D01*
X133167489Y-95015268D01*
X133126242Y-94953539D01*
X133116909Y-94931009D01*
X133101200Y-94852037D01*
X133100000Y-94839845D01*
X133100000Y-94460155D01*
X133101201Y-94447962D01*
X133101201Y-94447961D01*
X133116910Y-94368988D01*
X133126240Y-94346462D01*
X133167488Y-94284731D01*
X133184731Y-94267489D01*
X133204599Y-94254212D01*
X133246462Y-94226240D01*
X133268988Y-94216910D01*
X133347962Y-94201200D01*
X133360155Y-94200000D01*
X140042929Y-94200000D01*
X140046000Y-94200000D01*
X140143202Y-94180665D01*
X140225605Y-94125605D01*
X140280665Y-94043202D01*
X140300000Y-93946000D01*
X140300000Y-89660155D01*
X140301201Y-89647962D01*
X140301201Y-89647961D01*
X140316910Y-89568988D01*
X140326239Y-89546464D01*
X140338394Y-89528273D01*
X140360898Y-89507879D01*
X140390359Y-89500500D01*
X142209641Y-89500500D01*
X142239103Y-89507880D01*
G37*
%TD.AperFunction*%
%TD*%
%TA.AperFunction,Conductor*%
%TO.N,/SDA*%
G36*
X141652037Y-99001200D02*
G01*
X141731009Y-99016909D01*
X141753539Y-99026242D01*
X141815268Y-99067489D01*
X141832510Y-99084731D01*
X141873757Y-99146460D01*
X141883090Y-99168990D01*
X141898799Y-99247961D01*
X141900000Y-99260155D01*
X141900000Y-99339845D01*
X141898799Y-99352039D01*
X141883090Y-99431009D01*
X141873757Y-99453539D01*
X141832510Y-99515268D01*
X141815268Y-99532510D01*
X141753539Y-99573757D01*
X141731009Y-99583090D01*
X141683570Y-99592526D01*
X141652036Y-99598799D01*
X141639845Y-99600000D01*
X140960155Y-99600000D01*
X140947963Y-99598799D01*
X140901890Y-99589634D01*
X140868990Y-99583090D01*
X140846460Y-99573757D01*
X140784731Y-99532510D01*
X140767489Y-99515268D01*
X140726242Y-99453539D01*
X140716909Y-99431009D01*
X140701200Y-99352037D01*
X140700000Y-99339845D01*
X140700000Y-99260155D01*
X140701201Y-99247962D01*
X140701201Y-99247961D01*
X140716910Y-99168988D01*
X140726240Y-99146462D01*
X140767488Y-99084731D01*
X140784731Y-99067489D01*
X140804599Y-99054212D01*
X140846462Y-99026240D01*
X140868988Y-99016910D01*
X140947962Y-99001200D01*
X140960155Y-99000000D01*
X141639845Y-99000000D01*
X141652037Y-99001200D01*
G37*
%TD.AperFunction*%
%TD*%
%TA.AperFunction,Conductor*%
%TO.N,/SCL*%
G36*
X139052037Y-99001200D02*
G01*
X139131009Y-99016909D01*
X139153539Y-99026242D01*
X139215268Y-99067489D01*
X139232510Y-99084731D01*
X139273757Y-99146460D01*
X139283090Y-99168990D01*
X139298799Y-99247961D01*
X139300000Y-99260155D01*
X139300000Y-99339845D01*
X139298799Y-99352039D01*
X139283090Y-99431009D01*
X139273757Y-99453539D01*
X139232510Y-99515268D01*
X139215268Y-99532510D01*
X139153539Y-99573757D01*
X139131009Y-99583090D01*
X139083570Y-99592526D01*
X139052036Y-99598799D01*
X139039845Y-99600000D01*
X138360155Y-99600000D01*
X138347963Y-99598799D01*
X138301890Y-99589634D01*
X138268990Y-99583090D01*
X138246460Y-99573757D01*
X138184731Y-99532510D01*
X138167489Y-99515268D01*
X138126242Y-99453539D01*
X138116909Y-99431009D01*
X138101200Y-99352037D01*
X138100000Y-99339845D01*
X138100000Y-99260155D01*
X138101201Y-99247962D01*
X138101201Y-99247961D01*
X138116910Y-99168988D01*
X138126240Y-99146462D01*
X138167488Y-99084731D01*
X138184731Y-99067489D01*
X138204599Y-99054212D01*
X138246462Y-99026240D01*
X138268988Y-99016910D01*
X138347962Y-99001200D01*
X138360155Y-99000000D01*
X139039845Y-99000000D01*
X139052037Y-99001200D01*
G37*
%TD.AperFunction*%
%TD*%
%TA.AperFunction,Conductor*%
%TO.N,/ALERT*%
G36*
X139052037Y-100401200D02*
G01*
X139131009Y-100416909D01*
X139153539Y-100426242D01*
X139215268Y-100467489D01*
X139232510Y-100484731D01*
X139273757Y-100546460D01*
X139283090Y-100568990D01*
X139298799Y-100647961D01*
X139300000Y-100660155D01*
X139300000Y-100739845D01*
X139298799Y-100752039D01*
X139283090Y-100831009D01*
X139273757Y-100853539D01*
X139232510Y-100915268D01*
X139215268Y-100932510D01*
X139153539Y-100973757D01*
X139131009Y-100983090D01*
X139083570Y-100992526D01*
X139052036Y-100998799D01*
X139039845Y-101000000D01*
X138360155Y-101000000D01*
X138347963Y-100998799D01*
X138301890Y-100989634D01*
X138268990Y-100983090D01*
X138246460Y-100973757D01*
X138184731Y-100932510D01*
X138167489Y-100915268D01*
X138126242Y-100853539D01*
X138116909Y-100831009D01*
X138101200Y-100752037D01*
X138100000Y-100739845D01*
X138100000Y-100660155D01*
X138101201Y-100647962D01*
X138101201Y-100647961D01*
X138116910Y-100568988D01*
X138126240Y-100546462D01*
X138167488Y-100484731D01*
X138184731Y-100467489D01*
X138204599Y-100454212D01*
X138246462Y-100426240D01*
X138268988Y-100416910D01*
X138347962Y-100401200D01*
X138360155Y-100400000D01*
X139039845Y-100400000D01*
X139052037Y-100401200D01*
G37*
%TD.AperFunction*%
%TD*%
%TA.AperFunction,Conductor*%
%TO.N,/ADD0*%
G36*
X141652037Y-100401200D02*
G01*
X141731009Y-100416909D01*
X141753539Y-100426242D01*
X141815268Y-100467489D01*
X141832510Y-100484731D01*
X141873757Y-100546460D01*
X141883090Y-100568990D01*
X141898799Y-100647961D01*
X141900000Y-100660155D01*
X141900000Y-100739845D01*
X141898799Y-100752039D01*
X141883090Y-100831009D01*
X141873757Y-100853539D01*
X141832510Y-100915268D01*
X141815268Y-100932510D01*
X141753539Y-100973757D01*
X141731009Y-100983090D01*
X141683570Y-100992526D01*
X141652036Y-100998799D01*
X141639845Y-101000000D01*
X140960155Y-101000000D01*
X140947963Y-100998799D01*
X140901890Y-100989634D01*
X140868990Y-100983090D01*
X140846460Y-100973757D01*
X140784731Y-100932510D01*
X140767489Y-100915268D01*
X140726242Y-100853539D01*
X140716909Y-100831009D01*
X140701200Y-100752037D01*
X140700000Y-100739845D01*
X140700000Y-100660155D01*
X140701201Y-100647962D01*
X140701201Y-100647961D01*
X140716910Y-100568988D01*
X140726240Y-100546462D01*
X140767488Y-100484731D01*
X140784731Y-100467489D01*
X140804599Y-100454212D01*
X140846462Y-100426240D01*
X140868988Y-100416910D01*
X140947962Y-100401200D01*
X140960155Y-100400000D01*
X141639845Y-100400000D01*
X141652037Y-100401200D01*
G37*
%TD.AperFunction*%
%TD*%
M02*
