%TF.GenerationSoftware,KiCad,Pcbnew,(7.0.0)*%
%TF.CreationDate,2023-06-10T23:31:31+02:00*%
%TF.ProjectId,TMP117 Breakout,544d5031-3137-4204-9272-65616b6f7574,rev?*%
%TF.SameCoordinates,Original*%
%TF.FileFunction,Soldermask,Top*%
%TF.FilePolarity,Negative*%
%FSLAX46Y46*%
G04 Gerber Fmt 4.6, Leading zero omitted, Abs format (unit mm)*
G04 Created by KiCad (PCBNEW (7.0.0)) date 2023-06-10 23:31:31*
%MOMM*%
%LPD*%
G01*
G04 APERTURE LIST*
G04 Aperture macros list*
%AMRoundRect*
0 Rectangle with rounded corners*
0 $1 Rounding radius*
0 $2 $3 $4 $5 $6 $7 $8 $9 X,Y pos of 4 corners*
0 Add a 4 corners polygon primitive as box body*
4,1,4,$2,$3,$4,$5,$6,$7,$8,$9,$2,$3,0*
0 Add four circle primitives for the rounded corners*
1,1,$1+$1,$2,$3*
1,1,$1+$1,$4,$5*
1,1,$1+$1,$6,$7*
1,1,$1+$1,$8,$9*
0 Add four rect primitives between the rounded corners*
20,1,$1+$1,$2,$3,$4,$5,0*
20,1,$1+$1,$4,$5,$6,$7,0*
20,1,$1+$1,$6,$7,$8,$9,0*
20,1,$1+$1,$8,$9,$2,$3,0*%
G04 Aperture macros list end*
%ADD10RoundRect,0.200000X0.275000X-0.200000X0.275000X0.200000X-0.275000X0.200000X-0.275000X-0.200000X0*%
%ADD11C,0.800000*%
%ADD12C,6.400000*%
%ADD13RoundRect,0.225000X0.225000X0.250000X-0.225000X0.250000X-0.225000X-0.250000X0.225000X-0.250000X0*%
%ADD14RoundRect,0.425000X0.425000X-0.425000X0.425000X0.425000X-0.425000X0.425000X-0.425000X-0.425000X0*%
%ADD15RoundRect,0.093750X-0.093750X-0.106250X0.093750X-0.106250X0.093750X0.106250X-0.093750X0.106250X0*%
%ADD16R,1.000000X1.600000*%
G04 APERTURE END LIST*
D10*
%TO.C,R3*%
X133650000Y-94635000D03*
X133650000Y-92985000D03*
%TD*%
D11*
%TO.C,H1*%
X146100000Y-99500000D03*
X146802944Y-97802944D03*
X146802944Y-101197056D03*
X148500000Y-97100000D03*
D12*
X148500000Y-99500000D03*
D11*
X148500000Y-101900000D03*
X150197056Y-97802944D03*
X150197056Y-101197056D03*
X150900000Y-99500000D03*
%TD*%
D13*
%TO.C,C1*%
X140775000Y-98300000D03*
X139225000Y-98300000D03*
%TD*%
D10*
%TO.C,R2*%
X136200000Y-94635000D03*
X136200000Y-92985000D03*
%TD*%
%TO.C,R1*%
X143810000Y-94635000D03*
X143810000Y-92985000D03*
%TD*%
D11*
%TO.C,H2*%
X129100000Y-99500000D03*
X129802944Y-97802944D03*
X129802944Y-101197056D03*
X131500000Y-97100000D03*
D12*
X131500000Y-99500000D03*
D11*
X131500000Y-101900000D03*
X133197056Y-97802944D03*
X133197056Y-101197056D03*
X133900000Y-99500000D03*
%TD*%
D14*
%TO.C,J1*%
X133650000Y-90635000D03*
X133650000Y-89365000D03*
X136190000Y-90635000D03*
X136190000Y-89365000D03*
X138730000Y-90635000D03*
X138730000Y-89365000D03*
X141270000Y-90635000D03*
X141270000Y-89365000D03*
X143810000Y-90635000D03*
X143810000Y-89365000D03*
X146350000Y-90635000D03*
X146350000Y-89365000D03*
%TD*%
D15*
%TO.C,U1*%
X139112500Y-99350000D03*
X139112500Y-100000000D03*
X139112500Y-100650000D03*
X140887500Y-100650000D03*
X140887500Y-100000000D03*
X140887500Y-99350000D03*
D16*
X139999999Y-99999999D03*
%TD*%
M02*
