%TF.GenerationSoftware,KiCad,Pcbnew,(7.0.0)*%
%TF.CreationDate,2023-06-13T00:35:04+02:00*%
%TF.ProjectId,TMP117 Breakout,544d5031-3137-4204-9272-65616b6f7574,rev?*%
%TF.SameCoordinates,Original*%
%TF.FileFunction,Soldermask,Top*%
%TF.FilePolarity,Negative*%
%FSLAX46Y46*%
G04 Gerber Fmt 4.6, Leading zero omitted, Abs format (unit mm)*
G04 Created by KiCad (PCBNEW (7.0.0)) date 2023-06-13 00:35:04*
%MOMM*%
%LPD*%
G01*
G04 APERTURE LIST*
G04 Aperture macros list*
%AMRoundRect*
0 Rectangle with rounded corners*
0 $1 Rounding radius*
0 $2 $3 $4 $5 $6 $7 $8 $9 X,Y pos of 4 corners*
0 Add a 4 corners polygon primitive as box body*
4,1,4,$2,$3,$4,$5,$6,$7,$8,$9,$2,$3,0*
0 Add four circle primitives for the rounded corners*
1,1,$1+$1,$2,$3*
1,1,$1+$1,$4,$5*
1,1,$1+$1,$6,$7*
1,1,$1+$1,$8,$9*
0 Add four rect primitives between the rounded corners*
20,1,$1+$1,$2,$3,$4,$5,0*
20,1,$1+$1,$4,$5,$6,$7,0*
20,1,$1+$1,$6,$7,$8,$9,0*
20,1,$1+$1,$8,$9,$2,$3,0*%
G04 Aperture macros list end*
%ADD10C,0.152400*%
%ADD11RoundRect,0.200000X0.275000X-0.200000X0.275000X0.200000X-0.275000X0.200000X-0.275000X-0.200000X0*%
%ADD12C,0.800000*%
%ADD13C,6.400000*%
%ADD14RoundRect,0.225000X0.225000X0.250000X-0.225000X0.250000X-0.225000X-0.250000X0.225000X-0.250000X0*%
%ADD15RoundRect,0.425000X0.425000X-0.425000X0.425000X0.425000X-0.425000X0.425000X-0.425000X-0.425000X0*%
%ADD16RoundRect,0.093750X-0.093750X-0.106250X0.093750X-0.106250X0.093750X0.106250X-0.093750X0.106250X0*%
%ADD17R,1.000000X1.600000*%
G04 APERTURE END LIST*
D10*
X149943583Y-94605865D02*
X149943583Y-94141408D01*
X150756383Y-94373636D02*
X149943583Y-94373636D01*
X150756383Y-93870475D02*
X149943583Y-93870475D01*
X149943583Y-93870475D02*
X150524154Y-93599541D01*
X150524154Y-93599541D02*
X149943583Y-93328608D01*
X149943583Y-93328608D02*
X150756383Y-93328608D01*
X150756383Y-92941561D02*
X149943583Y-92941561D01*
X149943583Y-92941561D02*
X149943583Y-92631923D01*
X149943583Y-92631923D02*
X149982288Y-92554513D01*
X149982288Y-92554513D02*
X150020992Y-92515808D01*
X150020992Y-92515808D02*
X150098402Y-92477104D01*
X150098402Y-92477104D02*
X150214516Y-92477104D01*
X150214516Y-92477104D02*
X150291926Y-92515808D01*
X150291926Y-92515808D02*
X150330630Y-92554513D01*
X150330630Y-92554513D02*
X150369335Y-92631923D01*
X150369335Y-92631923D02*
X150369335Y-92941561D01*
X150756383Y-91703008D02*
X150756383Y-92167465D01*
X150756383Y-91935237D02*
X149943583Y-91935237D01*
X149943583Y-91935237D02*
X150059697Y-92012646D01*
X150059697Y-92012646D02*
X150137107Y-92090056D01*
X150137107Y-92090056D02*
X150175811Y-92167465D01*
X150756383Y-90928913D02*
X150756383Y-91393370D01*
X150756383Y-91161142D02*
X149943583Y-91161142D01*
X149943583Y-91161142D02*
X150059697Y-91238551D01*
X150059697Y-91238551D02*
X150137107Y-91315961D01*
X150137107Y-91315961D02*
X150175811Y-91393370D01*
X149943583Y-90657980D02*
X149943583Y-90116114D01*
X149943583Y-90116114D02*
X150756383Y-90464456D01*
X152073119Y-96332099D02*
X151260319Y-96332099D01*
X151260319Y-96332099D02*
X152073119Y-95867642D01*
X152073119Y-95867642D02*
X151260319Y-95867642D01*
X152073119Y-95480594D02*
X151260319Y-95480594D01*
X151260319Y-95480594D02*
X152073119Y-95016137D01*
X152073119Y-95016137D02*
X151260319Y-95016137D01*
X152073119Y-94629089D02*
X151260319Y-94629089D01*
X151260319Y-94629089D02*
X152073119Y-94164632D01*
X152073119Y-94164632D02*
X151260319Y-94164632D01*
X152073119Y-93777584D02*
X151260319Y-93777584D01*
X151337728Y-92941560D02*
X151299024Y-92902856D01*
X151299024Y-92902856D02*
X151260319Y-92825446D01*
X151260319Y-92825446D02*
X151260319Y-92631922D01*
X151260319Y-92631922D02*
X151299024Y-92554513D01*
X151299024Y-92554513D02*
X151337728Y-92515808D01*
X151337728Y-92515808D02*
X151415138Y-92477103D01*
X151415138Y-92477103D02*
X151492547Y-92477103D01*
X151492547Y-92477103D02*
X151608662Y-92515808D01*
X151608662Y-92515808D02*
X152073119Y-92980265D01*
X152073119Y-92980265D02*
X152073119Y-92477103D01*
X151260319Y-92206170D02*
X151260319Y-91703008D01*
X151260319Y-91703008D02*
X151569957Y-91973942D01*
X151569957Y-91973942D02*
X151569957Y-91857827D01*
X151569957Y-91857827D02*
X151608662Y-91780418D01*
X151608662Y-91780418D02*
X151647366Y-91741713D01*
X151647366Y-91741713D02*
X151724776Y-91703008D01*
X151724776Y-91703008D02*
X151918300Y-91703008D01*
X151918300Y-91703008D02*
X151995709Y-91741713D01*
X151995709Y-91741713D02*
X152034414Y-91780418D01*
X152034414Y-91780418D02*
X152073119Y-91857827D01*
X152073119Y-91857827D02*
X152073119Y-92090056D01*
X152073119Y-92090056D02*
X152034414Y-92167465D01*
X152034414Y-92167465D02*
X151995709Y-92206170D01*
X151337728Y-91393370D02*
X151299024Y-91354666D01*
X151299024Y-91354666D02*
X151260319Y-91277256D01*
X151260319Y-91277256D02*
X151260319Y-91083732D01*
X151260319Y-91083732D02*
X151299024Y-91006323D01*
X151299024Y-91006323D02*
X151337728Y-90967618D01*
X151337728Y-90967618D02*
X151415138Y-90928913D01*
X151415138Y-90928913D02*
X151492547Y-90928913D01*
X151492547Y-90928913D02*
X151608662Y-90967618D01*
X151608662Y-90967618D02*
X152073119Y-91432075D01*
X152073119Y-91432075D02*
X152073119Y-90928913D01*
X151260319Y-90657980D02*
X151260319Y-90154818D01*
X151260319Y-90154818D02*
X151569957Y-90425752D01*
X151569957Y-90425752D02*
X151569957Y-90309637D01*
X151569957Y-90309637D02*
X151608662Y-90232228D01*
X151608662Y-90232228D02*
X151647366Y-90193523D01*
X151647366Y-90193523D02*
X151724776Y-90154818D01*
X151724776Y-90154818D02*
X151918300Y-90154818D01*
X151918300Y-90154818D02*
X151995709Y-90193523D01*
X151995709Y-90193523D02*
X152034414Y-90232228D01*
X152034414Y-90232228D02*
X152073119Y-90309637D01*
X152073119Y-90309637D02*
X152073119Y-90541866D01*
X152073119Y-90541866D02*
X152034414Y-90619275D01*
X152034414Y-90619275D02*
X151995709Y-90657980D01*
D11*
%TO.C,R3*%
X133650000Y-94635000D03*
X133650000Y-92985000D03*
%TD*%
D12*
%TO.C,H1*%
X146100000Y-99500000D03*
X146802944Y-97802944D03*
X146802944Y-101197056D03*
X148500000Y-97100000D03*
D13*
X148500000Y-99500000D03*
D12*
X148500000Y-101900000D03*
X150197056Y-97802944D03*
X150197056Y-101197056D03*
X150900000Y-99500000D03*
%TD*%
D14*
%TO.C,C1*%
X140775000Y-98300000D03*
X139225000Y-98300000D03*
%TD*%
D11*
%TO.C,R2*%
X136200000Y-94635000D03*
X136200000Y-92985000D03*
%TD*%
%TO.C,R1*%
X143810000Y-94635000D03*
X143810000Y-92985000D03*
%TD*%
D12*
%TO.C,H2*%
X129100000Y-99500000D03*
X129802944Y-97802944D03*
X129802944Y-101197056D03*
X131500000Y-97100000D03*
D13*
X131500000Y-99500000D03*
D12*
X131500000Y-101900000D03*
X133197056Y-97802944D03*
X133197056Y-101197056D03*
X133900000Y-99500000D03*
%TD*%
D15*
%TO.C,J1*%
X133650000Y-90635000D03*
X133650000Y-89365000D03*
X136190000Y-90635000D03*
X136190000Y-89365000D03*
X138730000Y-90635000D03*
X138730000Y-89365000D03*
X141270000Y-90635000D03*
X141270000Y-89365000D03*
X143810000Y-90635000D03*
X143810000Y-89365000D03*
X146350000Y-90635000D03*
X146350000Y-89365000D03*
%TD*%
D16*
%TO.C,U1*%
X139112500Y-99350000D03*
X139112500Y-100000000D03*
X139112500Y-100650000D03*
X140887500Y-100650000D03*
X140887500Y-100000000D03*
X140887500Y-99350000D03*
D17*
X139999999Y-99999999D03*
%TD*%
M02*
