%TF.GenerationSoftware,KiCad,Pcbnew,(7.0.0)*%
%TF.CreationDate,2023-06-10T23:20:28+02:00*%
%TF.ProjectId,TMP117 Breakout,544d5031-3137-4204-9272-65616b6f7574,rev?*%
%TF.SameCoordinates,Original*%
%TF.FileFunction,Copper,L2,Bot*%
%TF.FilePolarity,Positive*%
%FSLAX46Y46*%
G04 Gerber Fmt 4.6, Leading zero omitted, Abs format (unit mm)*
G04 Created by KiCad (PCBNEW (7.0.0)) date 2023-06-10 23:20:28*
%MOMM*%
%LPD*%
G01*
G04 APERTURE LIST*
G04 Aperture macros list*
%AMRoundRect*
0 Rectangle with rounded corners*
0 $1 Rounding radius*
0 $2 $3 $4 $5 $6 $7 $8 $9 X,Y pos of 4 corners*
0 Add a 4 corners polygon primitive as box body*
4,1,4,$2,$3,$4,$5,$6,$7,$8,$9,$2,$3,0*
0 Add four circle primitives for the rounded corners*
1,1,$1+$1,$2,$3*
1,1,$1+$1,$4,$5*
1,1,$1+$1,$6,$7*
1,1,$1+$1,$8,$9*
0 Add four rect primitives between the rounded corners*
20,1,$1+$1,$2,$3,$4,$5,0*
20,1,$1+$1,$4,$5,$6,$7,0*
20,1,$1+$1,$6,$7,$8,$9,0*
20,1,$1+$1,$8,$9,$2,$3,0*%
G04 Aperture macros list end*
%TA.AperFunction,ComponentPad*%
%ADD10C,0.800000*%
%TD*%
%TA.AperFunction,ComponentPad*%
%ADD11C,6.400000*%
%TD*%
%TA.AperFunction,ComponentPad*%
%ADD12RoundRect,0.425000X0.425000X-0.425000X0.425000X0.425000X-0.425000X0.425000X-0.425000X-0.425000X0*%
%TD*%
%TA.AperFunction,ViaPad*%
%ADD13C,0.609600*%
%TD*%
%TA.AperFunction,Conductor*%
%ADD14C,0.152400*%
%TD*%
G04 APERTURE END LIST*
D10*
%TO.P,H2,1*%
%TO.N,N/C*%
X129100000Y-99500000D03*
X129802944Y-101197056D03*
X129802944Y-97802944D03*
X131500000Y-101900000D03*
D11*
X131500000Y-99500000D03*
D10*
X133900000Y-99500000D03*
X133197056Y-97802944D03*
X133197056Y-101197056D03*
X131500000Y-97100000D03*
%TD*%
%TO.P,H1,1*%
%TO.N,N/C*%
X148500000Y-97100000D03*
X150197056Y-101197056D03*
X150197056Y-97802944D03*
X150900000Y-99500000D03*
D11*
X148500000Y-99500000D03*
D10*
X148500000Y-101900000D03*
X146802944Y-97802944D03*
X146802944Y-101197056D03*
X146100000Y-99500000D03*
%TD*%
D12*
%TO.P,J1,1,Pin_1*%
%TO.N,/ALERT*%
X133650000Y-90635000D03*
X133650000Y-89365000D03*
%TO.P,J1,2,Pin_2*%
%TO.N,/SCL*%
X136190000Y-90635000D03*
X136190000Y-89365000D03*
%TO.P,J1,3,Pin_3*%
%TO.N,GND*%
X138730000Y-90635000D03*
X138730000Y-89365000D03*
%TO.P,J1,4,Pin_4*%
%TO.N,VCC*%
X141270000Y-90635000D03*
X141270000Y-89365000D03*
%TO.P,J1,5,Pin_5*%
%TO.N,/SDA*%
X143810000Y-90635000D03*
X143810000Y-89365000D03*
%TO.P,J1,6,Pin_6*%
%TO.N,/ADD0*%
X146350000Y-90635000D03*
X146350000Y-89365000D03*
%TD*%
D13*
%TO.N,GND*%
X138400000Y-98300000D03*
%TO.N,/SCL*%
X138400000Y-99300000D03*
%TO.N,/ALERT*%
X138400000Y-100700000D03*
%TO.N,/ADD0*%
X141600000Y-100700000D03*
%TO.N,/SDA*%
X141600000Y-99300000D03*
%TO.N,VCC*%
X141600000Y-98300000D03*
%TO.N,/EP*%
X140000000Y-99600000D03*
X140000000Y-100400000D03*
%TD*%
D14*
%TO.N,/ADD0*%
X141958579Y-100700000D02*
X141600000Y-100700000D01*
X142600000Y-100200000D02*
X142200000Y-100600000D01*
X142700000Y-98182842D02*
X142700000Y-99958579D01*
X141402655Y-94776432D02*
X141402655Y-96406707D01*
X141958579Y-93941421D02*
X141600000Y-94300000D01*
X144575736Y-93800000D02*
X142300000Y-93800000D01*
X146050000Y-92750000D02*
X145300000Y-93500000D01*
X146350000Y-90635000D02*
X146350000Y-92025736D01*
X142600006Y-100200006D02*
G75*
G03*
X142700000Y-99958579I-241406J241406D01*
G01*
X141958579Y-100699991D02*
G75*
G03*
X142200000Y-100600000I21J341391D01*
G01*
X142699982Y-98182842D02*
G75*
G03*
X142500000Y-97700000I-682782J42D01*
G01*
X141402662Y-96406706D02*
G75*
G03*
X141600001Y-96799999I706238J108206D01*
G01*
X141600000Y-96800000D02*
X142500000Y-97700000D01*
X142300000Y-93799988D02*
G75*
G03*
X141958579Y-93941421I0J-482812D01*
G01*
X144575736Y-93800014D02*
G75*
G03*
X145299999Y-93499999I-36J1024314D01*
G01*
X146049989Y-92749989D02*
G75*
G03*
X146350000Y-92025736I-724289J724289D01*
G01*
X141599990Y-94299990D02*
G75*
G03*
X141402655Y-94776432I476410J-476410D01*
G01*
%TO.N,/SCL*%
X136190000Y-90635000D02*
X136190000Y-92463726D01*
X138850000Y-96950000D02*
X137850000Y-97950000D01*
X137182842Y-93400000D02*
X137775736Y-93400000D01*
X137700000Y-98300000D02*
X137700000Y-98958579D01*
X136350000Y-92850000D02*
X136700000Y-93200000D01*
X139097941Y-94648582D02*
X139097941Y-96430311D01*
X137850000Y-97950000D02*
X137841421Y-97958578D01*
X138041421Y-99300000D02*
X138400000Y-99300000D01*
X138500000Y-93700000D02*
X138850000Y-94050000D01*
X138499989Y-93700011D02*
G75*
G03*
X137775736Y-93400000I-724289J-724289D01*
G01*
X137841430Y-97958587D02*
G75*
G03*
X137700000Y-98300000I341370J-341413D01*
G01*
X137799994Y-99200006D02*
G75*
G03*
X138041421Y-99300000I241406J241406D01*
G01*
X138850011Y-96950011D02*
G75*
G03*
X139097941Y-96430311I-618411J614011D01*
G01*
X139097948Y-94648582D02*
G75*
G03*
X138850000Y-94050000I-846548J-18D01*
G01*
X136189990Y-92463726D02*
G75*
G03*
X136350000Y-92850000I546310J26D01*
G01*
X136699987Y-93200013D02*
G75*
G03*
X137182842Y-93400000I482813J482813D01*
G01*
X137700009Y-98958579D02*
G75*
G03*
X137800000Y-99200000I341391J-21D01*
G01*
%TO.N,/ALERT*%
X138200000Y-94000000D02*
X138500000Y-94300000D01*
X138550000Y-96750000D02*
X137650000Y-97650000D01*
X137500816Y-97800816D02*
X138000816Y-97300816D01*
X137300000Y-98300000D02*
X137300000Y-98285628D01*
X135300000Y-93800000D02*
X137717158Y-93800000D01*
X133850000Y-92750000D02*
X134617157Y-93517157D01*
X137300000Y-99958579D02*
X137300000Y-98300000D01*
X133650000Y-90635000D02*
X133650000Y-92267158D01*
X137800000Y-100600000D02*
X137400000Y-100200000D01*
X138400000Y-100700000D02*
X138041421Y-100700000D01*
X138697995Y-94778002D02*
X138697995Y-96455028D01*
X137300009Y-99958579D02*
G75*
G03*
X137400000Y-100200000I341391J-21D01*
G01*
X133650018Y-92267158D02*
G75*
G03*
X133850000Y-92750000I682782J-42D01*
G01*
X137799994Y-100600006D02*
G75*
G03*
X138041421Y-100700000I241406J241406D01*
G01*
X137500808Y-97800808D02*
G75*
G03*
X137300000Y-98285628I484792J-484792D01*
G01*
X134617154Y-93517160D02*
G75*
G03*
X135300000Y-93800000I682846J682860D01*
G01*
X138697994Y-94778002D02*
G75*
G03*
X138500000Y-94300000I-675994J2D01*
G01*
X138200013Y-93999987D02*
G75*
G03*
X137717158Y-93800000I-482813J-482813D01*
G01*
X138549988Y-96749988D02*
G75*
G03*
X138697994Y-96455028I-381588J376088D01*
G01*
%TO.N,/SDA*%
X142300000Y-98212132D02*
X142300000Y-98958579D01*
X143810000Y-90635000D02*
X143800000Y-90645000D01*
X143700000Y-92800000D02*
X143250000Y-93250000D01*
X141694484Y-93609392D02*
X141301938Y-94001938D01*
X141001938Y-94726202D02*
X141001938Y-96430325D01*
X143800000Y-90645000D02*
X143800000Y-92558579D01*
X142887868Y-93400000D02*
X142200000Y-93400000D01*
X141250000Y-96950000D02*
X142150000Y-97850000D01*
X141958579Y-99300000D02*
X141600000Y-99300000D01*
X142200006Y-99200006D02*
G75*
G03*
X142300000Y-98958579I-241406J241406D01*
G01*
X141958579Y-99299991D02*
G75*
G03*
X142200000Y-99200000I21J341391D01*
G01*
X142299986Y-98212132D02*
G75*
G03*
X142149999Y-97850001I-512086J32D01*
G01*
X142887868Y-93399986D02*
G75*
G03*
X143249999Y-93249999I32J512086D01*
G01*
X143700006Y-92800006D02*
G75*
G03*
X143800000Y-92558579I-241406J241406D01*
G01*
X142200000Y-93399999D02*
G75*
G03*
X141694485Y-93609393I0J-714901D01*
G01*
X141301937Y-94001937D02*
G75*
G03*
X141001938Y-94726202I724263J-724263D01*
G01*
X141001943Y-96430324D02*
G75*
G03*
X141250001Y-96949999I867457J95024D01*
G01*
%TD*%
%TA.AperFunction,Conductor*%
%TO.N,/EP*%
G36*
X140352037Y-99101200D02*
G01*
X140431009Y-99116909D01*
X140453539Y-99126242D01*
X140515268Y-99167489D01*
X140532510Y-99184731D01*
X140573757Y-99246460D01*
X140583090Y-99268990D01*
X140598799Y-99347961D01*
X140600000Y-99360155D01*
X140600000Y-100639845D01*
X140598799Y-100652039D01*
X140583090Y-100731009D01*
X140573757Y-100753539D01*
X140532510Y-100815268D01*
X140515268Y-100832510D01*
X140453539Y-100873757D01*
X140431009Y-100883090D01*
X140383570Y-100892526D01*
X140352036Y-100898799D01*
X140339845Y-100900000D01*
X139660155Y-100900000D01*
X139647963Y-100898799D01*
X139601890Y-100889634D01*
X139568990Y-100883090D01*
X139546460Y-100873757D01*
X139484731Y-100832510D01*
X139467489Y-100815268D01*
X139426242Y-100753539D01*
X139416909Y-100731009D01*
X139401200Y-100652037D01*
X139400000Y-100639845D01*
X139400000Y-99360155D01*
X139401201Y-99347962D01*
X139401201Y-99347961D01*
X139416910Y-99268988D01*
X139426240Y-99246462D01*
X139467488Y-99184731D01*
X139484731Y-99167489D01*
X139504599Y-99154212D01*
X139546462Y-99126240D01*
X139568988Y-99116910D01*
X139647962Y-99101200D01*
X139660155Y-99100000D01*
X140339845Y-99100000D01*
X140352037Y-99101200D01*
G37*
%TD.AperFunction*%
%TD*%
%TA.AperFunction,Conductor*%
%TO.N,GND*%
G36*
X140201195Y-89518806D02*
G01*
X140219501Y-89563000D01*
X140219501Y-89853162D01*
X140219597Y-89854386D01*
X140219598Y-89854404D01*
X140222040Y-89885440D01*
X140222291Y-89888627D01*
X140223181Y-89891693D01*
X140223182Y-89891694D01*
X140249581Y-89982562D01*
X140249581Y-90017434D01*
X140222291Y-90111373D01*
X140222040Y-90114556D01*
X140222040Y-90114559D01*
X140219597Y-90145598D01*
X140219596Y-90145610D01*
X140219500Y-90146837D01*
X140219500Y-90148074D01*
X140219500Y-90148075D01*
X140219500Y-91121922D01*
X140219500Y-91121947D01*
X140219501Y-91123162D01*
X140219597Y-91124385D01*
X140219598Y-91124404D01*
X140222040Y-91155440D01*
X140222291Y-91158627D01*
X140266382Y-91310390D01*
X140268385Y-91313777D01*
X140268386Y-91313779D01*
X140344827Y-91443034D01*
X140344829Y-91443036D01*
X140346830Y-91446420D01*
X140458580Y-91558170D01*
X140594610Y-91638618D01*
X140746373Y-91682709D01*
X140781837Y-91685500D01*
X141758162Y-91685499D01*
X141793627Y-91682709D01*
X141945390Y-91638618D01*
X142081420Y-91558170D01*
X142193170Y-91446420D01*
X142273618Y-91310390D01*
X142317709Y-91158627D01*
X142320500Y-91123163D01*
X142320499Y-90146838D01*
X142317709Y-90111373D01*
X142290417Y-90017434D01*
X142290417Y-89982566D01*
X142317709Y-89888627D01*
X142320500Y-89853163D01*
X142320500Y-89563000D01*
X142338806Y-89518806D01*
X142383000Y-89500500D01*
X142697001Y-89500500D01*
X142741195Y-89518806D01*
X142759501Y-89563000D01*
X142759501Y-89853162D01*
X142759597Y-89854386D01*
X142759598Y-89854404D01*
X142762040Y-89885440D01*
X142762291Y-89888627D01*
X142763181Y-89891693D01*
X142763182Y-89891694D01*
X142789581Y-89982562D01*
X142789581Y-90017434D01*
X142762291Y-90111373D01*
X142762040Y-90114556D01*
X142762040Y-90114559D01*
X142759597Y-90145598D01*
X142759596Y-90145610D01*
X142759500Y-90146837D01*
X142759500Y-90148074D01*
X142759500Y-90148075D01*
X142759500Y-91121922D01*
X142759500Y-91121947D01*
X142759501Y-91123162D01*
X142759597Y-91124385D01*
X142759598Y-91124404D01*
X142762040Y-91155440D01*
X142762291Y-91158627D01*
X142806382Y-91310390D01*
X142808385Y-91313777D01*
X142808386Y-91313779D01*
X142884827Y-91443034D01*
X142884829Y-91443036D01*
X142886830Y-91446420D01*
X142998580Y-91558170D01*
X143134610Y-91638618D01*
X143286373Y-91682709D01*
X143321837Y-91685500D01*
X143460800Y-91685500D01*
X143504994Y-91703806D01*
X143523300Y-91747999D01*
X143523300Y-92509798D01*
X143523297Y-92509806D01*
X143523297Y-92509826D01*
X143523297Y-92509827D01*
X143523299Y-92554497D01*
X143522765Y-92562651D01*
X143522169Y-92567182D01*
X143517917Y-92583018D01*
X143517752Y-92583415D01*
X143509625Y-92597472D01*
X143506886Y-92601042D01*
X143501493Y-92607192D01*
X143057240Y-93051445D01*
X143051093Y-93056836D01*
X143012116Y-93086743D01*
X142997985Y-93094901D01*
X142956417Y-93112118D01*
X142940655Y-93116341D01*
X142891837Y-93122765D01*
X142883680Y-93123299D01*
X142839116Y-93123297D01*
X142839096Y-93123297D01*
X142839089Y-93123299D01*
X142839083Y-93123300D01*
X142200002Y-93123300D01*
X142200000Y-93123300D01*
X142200000Y-93123299D01*
X142121959Y-93123299D01*
X142119537Y-93123682D01*
X142119532Y-93123683D01*
X141970224Y-93147331D01*
X141970216Y-93147332D01*
X141967797Y-93147716D01*
X141965460Y-93148475D01*
X141965457Y-93148476D01*
X141821690Y-93195189D01*
X141821679Y-93195193D01*
X141819354Y-93195949D01*
X141817174Y-93197059D01*
X141817166Y-93197063D01*
X141682471Y-93265694D01*
X141682459Y-93265700D01*
X141680283Y-93266810D01*
X141678296Y-93268252D01*
X141678292Y-93268256D01*
X141555992Y-93357113D01*
X141555984Y-93357119D01*
X141554010Y-93358554D01*
X141552283Y-93360280D01*
X141552277Y-93360286D01*
X141535402Y-93377161D01*
X141106281Y-93806281D01*
X141035619Y-93876941D01*
X141035612Y-93876948D01*
X141033881Y-93878680D01*
X141032445Y-93880656D01*
X141032436Y-93880667D01*
X140956141Y-93985680D01*
X140913517Y-94044348D01*
X140912403Y-94046532D01*
X140912400Y-94046539D01*
X140826452Y-94215223D01*
X140820551Y-94226805D01*
X140819793Y-94229136D01*
X140819792Y-94229140D01*
X140769730Y-94383216D01*
X140757271Y-94421559D01*
X140756887Y-94423978D01*
X140756886Y-94423986D01*
X140732438Y-94578353D01*
X140725238Y-94623814D01*
X140725238Y-94626274D01*
X140725238Y-96389431D01*
X140723447Y-96404283D01*
X140721570Y-96411956D01*
X140722165Y-96417388D01*
X140722165Y-96417391D01*
X140724866Y-96442044D01*
X140725238Y-96448850D01*
X140725238Y-96455965D01*
X140725766Y-96458792D01*
X140725767Y-96458798D01*
X140727615Y-96468684D01*
X140728303Y-96473332D01*
X140735118Y-96535307D01*
X140735121Y-96535324D01*
X140735349Y-96537397D01*
X140735849Y-96539412D01*
X140735852Y-96539424D01*
X140772182Y-96685597D01*
X140772185Y-96685606D01*
X140772690Y-96687638D01*
X140773467Y-96689595D01*
X140773468Y-96689597D01*
X140829063Y-96829559D01*
X140829840Y-96831515D01*
X140905766Y-96966430D01*
X140907034Y-96968108D01*
X140997830Y-97088269D01*
X140997834Y-97088274D01*
X140999097Y-97089945D01*
X141017280Y-97108282D01*
X141017570Y-97108633D01*
X141017769Y-97109082D01*
X141053825Y-97145138D01*
X141053957Y-97145335D01*
X141053990Y-97145303D01*
X141087967Y-97179541D01*
X141088364Y-97179728D01*
X141088684Y-97179997D01*
X141596693Y-97688006D01*
X141614999Y-97732200D01*
X141596693Y-97776394D01*
X141552499Y-97794700D01*
X141527349Y-97794700D01*
X141523060Y-97795959D01*
X141523055Y-97795960D01*
X141392222Y-97834377D01*
X141392219Y-97834377D01*
X141387932Y-97835637D01*
X141384173Y-97838052D01*
X141384170Y-97838054D01*
X141269457Y-97911775D01*
X141269452Y-97911778D01*
X141265696Y-97914193D01*
X141262771Y-97917567D01*
X141262768Y-97917571D01*
X141173469Y-98020627D01*
X141173465Y-98020631D01*
X141170543Y-98024005D01*
X141168688Y-98028066D01*
X141168686Y-98028070D01*
X141112040Y-98152109D01*
X141112038Y-98152113D01*
X141110183Y-98156177D01*
X141109547Y-98160594D01*
X141109546Y-98160601D01*
X141098267Y-98239050D01*
X141089504Y-98300000D01*
X141090140Y-98304423D01*
X141109546Y-98439398D01*
X141109547Y-98439403D01*
X141110183Y-98443823D01*
X141170543Y-98575995D01*
X141265696Y-98685807D01*
X141269457Y-98688224D01*
X141361571Y-98747422D01*
X141386844Y-98779558D01*
X141386844Y-98820442D01*
X141361571Y-98852578D01*
X141269457Y-98911775D01*
X141269452Y-98911778D01*
X141265696Y-98914193D01*
X141262771Y-98917567D01*
X141262768Y-98917571D01*
X141173469Y-99020627D01*
X141173465Y-99020631D01*
X141170543Y-99024005D01*
X141168688Y-99028066D01*
X141168686Y-99028070D01*
X141112040Y-99152109D01*
X141112038Y-99152113D01*
X141110183Y-99156177D01*
X141109547Y-99160594D01*
X141109546Y-99160601D01*
X141091281Y-99287636D01*
X141089504Y-99300000D01*
X141090140Y-99304423D01*
X141109546Y-99439398D01*
X141109547Y-99439403D01*
X141110183Y-99443823D01*
X141112039Y-99447888D01*
X141112040Y-99447890D01*
X141160021Y-99552954D01*
X141170543Y-99575995D01*
X141265696Y-99685807D01*
X141387932Y-99764363D01*
X141527349Y-99805300D01*
X141668178Y-99805300D01*
X141672651Y-99805300D01*
X141812068Y-99764363D01*
X141934304Y-99685807D01*
X142016779Y-99590625D01*
X142051823Y-99570255D01*
X142138868Y-99552945D01*
X142251363Y-99506352D01*
X142270575Y-99493515D01*
X142326078Y-99456432D01*
X142368959Y-99446434D01*
X142407790Y-99467190D01*
X142423300Y-99508399D01*
X142423300Y-99909798D01*
X142423297Y-99909806D01*
X142423297Y-99909826D01*
X142423297Y-99909827D01*
X142423299Y-99954497D01*
X142422765Y-99962651D01*
X142422169Y-99967182D01*
X142417917Y-99983018D01*
X142417752Y-99983415D01*
X142409625Y-99997472D01*
X142406886Y-100001042D01*
X142401493Y-100007192D01*
X142056137Y-100352548D01*
X142026678Y-100369092D01*
X141992912Y-100367886D01*
X141964709Y-100349283D01*
X141934304Y-100314193D01*
X141812068Y-100235637D01*
X141799958Y-100232081D01*
X141676944Y-100195960D01*
X141676940Y-100195959D01*
X141672651Y-100194700D01*
X141527349Y-100194700D01*
X141523060Y-100195959D01*
X141523055Y-100195960D01*
X141392222Y-100234377D01*
X141392219Y-100234377D01*
X141387932Y-100235637D01*
X141384173Y-100238052D01*
X141384170Y-100238054D01*
X141269457Y-100311775D01*
X141269452Y-100311778D01*
X141265696Y-100314193D01*
X141262771Y-100317567D01*
X141262768Y-100317571D01*
X141173469Y-100420627D01*
X141173465Y-100420631D01*
X141170543Y-100424005D01*
X141168688Y-100428066D01*
X141168686Y-100428070D01*
X141112040Y-100552109D01*
X141112038Y-100552113D01*
X141110183Y-100556177D01*
X141109547Y-100560594D01*
X141109546Y-100560601D01*
X141091281Y-100687636D01*
X141089504Y-100700000D01*
X141090140Y-100704423D01*
X141109546Y-100839398D01*
X141109547Y-100839403D01*
X141110183Y-100843823D01*
X141112039Y-100847888D01*
X141112040Y-100847890D01*
X141160021Y-100952954D01*
X141170543Y-100975995D01*
X141173468Y-100979371D01*
X141173469Y-100979372D01*
X141224041Y-101037735D01*
X141265696Y-101085807D01*
X141387932Y-101164363D01*
X141527349Y-101205300D01*
X141668178Y-101205300D01*
X141672651Y-101205300D01*
X141812068Y-101164363D01*
X141934304Y-101085807D01*
X142016779Y-100990625D01*
X142051823Y-100970255D01*
X142138868Y-100952945D01*
X142251363Y-100906352D01*
X142352607Y-100838706D01*
X142365841Y-100825472D01*
X142642805Y-100548507D01*
X142687000Y-100530201D01*
X142731194Y-100548507D01*
X142749500Y-100592701D01*
X142749500Y-101495078D01*
X142748730Y-101504855D01*
X142738836Y-101567322D01*
X142732794Y-101585919D01*
X142706343Y-101637832D01*
X142694849Y-101653652D01*
X142653652Y-101694849D01*
X142637832Y-101706343D01*
X142585919Y-101732794D01*
X142567322Y-101738836D01*
X142504855Y-101748730D01*
X142495078Y-101749500D01*
X137504922Y-101749500D01*
X137495145Y-101748731D01*
X137432677Y-101738837D01*
X137414080Y-101732794D01*
X137362167Y-101706343D01*
X137346347Y-101694849D01*
X137305150Y-101653652D01*
X137293656Y-101637832D01*
X137267205Y-101585919D01*
X137261162Y-101567321D01*
X137251269Y-101504854D01*
X137250500Y-101495078D01*
X137250500Y-100592701D01*
X137268806Y-100548507D01*
X137313000Y-100530201D01*
X137357194Y-100548507D01*
X137604326Y-100795639D01*
X137604340Y-100795659D01*
X137604337Y-100795663D01*
X137647388Y-100838713D01*
X137748632Y-100906360D01*
X137861130Y-100952954D01*
X137948186Y-100970266D01*
X137983230Y-100990637D01*
X138024041Y-101037735D01*
X138065696Y-101085807D01*
X138187932Y-101164363D01*
X138327349Y-101205300D01*
X138468178Y-101205300D01*
X138472651Y-101205300D01*
X138612068Y-101164363D01*
X138734304Y-101085807D01*
X138829457Y-100975995D01*
X138889817Y-100843823D01*
X138910496Y-100700000D01*
X138901847Y-100639845D01*
X139194500Y-100639845D01*
X139194535Y-100640564D01*
X139194536Y-100640593D01*
X139195450Y-100659210D01*
X139195451Y-100659229D01*
X139195488Y-100659974D01*
X139195563Y-100660743D01*
X139195564Y-100660747D01*
X139196612Y-100671402D01*
X139196615Y-100671434D01*
X139196688Y-100672166D01*
X139199649Y-100692129D01*
X139199792Y-100692851D01*
X139199798Y-100692882D01*
X139215057Y-100769587D01*
X139215358Y-100771101D01*
X139227054Y-100809656D01*
X139227633Y-100811055D01*
X139227635Y-100811059D01*
X139235799Y-100830768D01*
X139235803Y-100830778D01*
X139236387Y-100832186D01*
X139255376Y-100867711D01*
X139256226Y-100868983D01*
X139256232Y-100868993D01*
X139280056Y-100904646D01*
X139296623Y-100929440D01*
X139322179Y-100960578D01*
X139339421Y-100977820D01*
X139370559Y-101003376D01*
X139411804Y-101030935D01*
X139421979Y-101037735D01*
X139432288Y-101044623D01*
X139467813Y-101063612D01*
X139490343Y-101072945D01*
X139528898Y-101084641D01*
X139607871Y-101100350D01*
X139627817Y-101103309D01*
X139640009Y-101104510D01*
X139660155Y-101105500D01*
X140339094Y-101105500D01*
X140339845Y-101105500D01*
X140359992Y-101104510D01*
X140372183Y-101103309D01*
X140392128Y-101100350D01*
X140471101Y-101084641D01*
X140509656Y-101072945D01*
X140532186Y-101063612D01*
X140567711Y-101044623D01*
X140629440Y-101003376D01*
X140660578Y-100977820D01*
X140677820Y-100960578D01*
X140703376Y-100929440D01*
X140744623Y-100867711D01*
X140763612Y-100832186D01*
X140772945Y-100809656D01*
X140784641Y-100771102D01*
X140800350Y-100692132D01*
X140803309Y-100672181D01*
X140804510Y-100659987D01*
X140805500Y-100639845D01*
X140805500Y-99360155D01*
X140804510Y-99340013D01*
X140803309Y-99327819D01*
X140800350Y-99307868D01*
X140784641Y-99228897D01*
X140772945Y-99190343D01*
X140763612Y-99167813D01*
X140744623Y-99132288D01*
X140703376Y-99070559D01*
X140677820Y-99039421D01*
X140660578Y-99022179D01*
X140629440Y-98996623D01*
X140597590Y-98975341D01*
X140568993Y-98956232D01*
X140568983Y-98956226D01*
X140567711Y-98955376D01*
X140566347Y-98954647D01*
X140533540Y-98937111D01*
X140532186Y-98936387D01*
X140530778Y-98935803D01*
X140530768Y-98935799D01*
X140511059Y-98927635D01*
X140511055Y-98927633D01*
X140509656Y-98927054D01*
X140508207Y-98926614D01*
X140508203Y-98926613D01*
X140472559Y-98915800D01*
X140472553Y-98915798D01*
X140471101Y-98915358D01*
X140469608Y-98915061D01*
X140469604Y-98915060D01*
X140392882Y-98899798D01*
X140392851Y-98899792D01*
X140392129Y-98899649D01*
X140391381Y-98899538D01*
X140391375Y-98899537D01*
X140372908Y-98896798D01*
X140372905Y-98896797D01*
X140372166Y-98896688D01*
X140371434Y-98896615D01*
X140371402Y-98896612D01*
X140360747Y-98895564D01*
X140360743Y-98895563D01*
X140359974Y-98895488D01*
X140359229Y-98895451D01*
X140359210Y-98895450D01*
X140340593Y-98894536D01*
X140340564Y-98894535D01*
X140339845Y-98894500D01*
X139660155Y-98894500D01*
X139659436Y-98894535D01*
X139659406Y-98894536D01*
X139640798Y-98895450D01*
X139640789Y-98895450D01*
X139640028Y-98895488D01*
X139639284Y-98895561D01*
X139639246Y-98895564D01*
X139628614Y-98896611D01*
X139628600Y-98896612D01*
X139627835Y-98896688D01*
X139627112Y-98896795D01*
X139627073Y-98896800D01*
X139608622Y-98899537D01*
X139608614Y-98899538D01*
X139607868Y-98899649D01*
X139607150Y-98899791D01*
X139607120Y-98899797D01*
X139530390Y-98915061D01*
X139530382Y-98915062D01*
X139528894Y-98915359D01*
X139527446Y-98915798D01*
X139527435Y-98915801D01*
X139491810Y-98926608D01*
X139491802Y-98926610D01*
X139490351Y-98927051D01*
X139488942Y-98927634D01*
X139488938Y-98927636D01*
X139469256Y-98935788D01*
X139469250Y-98935790D01*
X139467825Y-98936381D01*
X139466468Y-98937105D01*
X139466458Y-98937111D01*
X139433650Y-98954647D01*
X139433641Y-98954652D01*
X139432289Y-98955375D01*
X139431013Y-98956227D01*
X139431004Y-98956233D01*
X139371846Y-98995763D01*
X139371841Y-98995766D01*
X139370558Y-98996624D01*
X139369368Y-98997600D01*
X139369358Y-98997608D01*
X139340621Y-99021191D01*
X139340603Y-99021206D01*
X139339425Y-99022174D01*
X139338351Y-99023247D01*
X139338331Y-99023266D01*
X139323266Y-99038331D01*
X139323255Y-99038342D01*
X139322182Y-99039416D01*
X139321221Y-99040586D01*
X139321210Y-99040599D01*
X139297584Y-99069386D01*
X139297569Y-99069404D01*
X139296622Y-99070560D01*
X139255374Y-99132291D01*
X139254655Y-99133634D01*
X139254649Y-99133646D01*
X139237111Y-99166458D01*
X139237105Y-99166468D01*
X139236381Y-99167825D01*
X139227051Y-99190351D01*
X139226610Y-99191803D01*
X139226607Y-99191813D01*
X139215802Y-99227432D01*
X139215796Y-99227452D01*
X139215359Y-99228896D01*
X139215062Y-99230388D01*
X139215060Y-99230397D01*
X139202095Y-99295577D01*
X139199650Y-99307869D01*
X139199545Y-99308572D01*
X139199540Y-99308605D01*
X139196801Y-99327072D01*
X139196797Y-99327103D01*
X139196691Y-99327819D01*
X139196617Y-99328567D01*
X139196616Y-99328578D01*
X139195564Y-99339253D01*
X139195561Y-99339287D01*
X139195490Y-99340013D01*
X139195454Y-99340729D01*
X139195452Y-99340767D01*
X139194536Y-99359413D01*
X139194500Y-99360155D01*
X139194500Y-100639845D01*
X138901847Y-100639845D01*
X138889817Y-100556177D01*
X138829457Y-100424005D01*
X138734304Y-100314193D01*
X138612068Y-100235637D01*
X138599958Y-100232081D01*
X138476944Y-100195960D01*
X138476940Y-100195959D01*
X138472651Y-100194700D01*
X138327349Y-100194700D01*
X138323060Y-100195959D01*
X138323055Y-100195960D01*
X138192222Y-100234377D01*
X138192219Y-100234377D01*
X138187932Y-100235637D01*
X138184173Y-100238052D01*
X138184170Y-100238054D01*
X138069457Y-100311775D01*
X138069452Y-100311778D01*
X138065696Y-100314193D01*
X138062771Y-100317568D01*
X138062767Y-100317572D01*
X138035288Y-100349284D01*
X138007085Y-100367887D01*
X137973320Y-100369092D01*
X137943861Y-100352548D01*
X137598559Y-100007246D01*
X137593169Y-100001101D01*
X137590385Y-99997473D01*
X137582204Y-99983287D01*
X137582040Y-99982890D01*
X137577839Y-99967182D01*
X137577234Y-99962585D01*
X137576700Y-99954426D01*
X137576703Y-99909806D01*
X137576700Y-99909798D01*
X137576700Y-99508409D01*
X137592210Y-99467200D01*
X137631041Y-99446444D01*
X137673922Y-99456442D01*
X137748632Y-99506360D01*
X137861130Y-99552954D01*
X137948186Y-99570266D01*
X137983230Y-99590637D01*
X138065696Y-99685807D01*
X138187932Y-99764363D01*
X138327349Y-99805300D01*
X138468178Y-99805300D01*
X138472651Y-99805300D01*
X138612068Y-99764363D01*
X138734304Y-99685807D01*
X138829457Y-99575995D01*
X138889817Y-99443823D01*
X138910496Y-99300000D01*
X138889817Y-99156177D01*
X138829457Y-99024005D01*
X138734304Y-98914193D01*
X138727465Y-98909798D01*
X138615829Y-98838054D01*
X138615828Y-98838053D01*
X138612068Y-98835637D01*
X138607777Y-98834377D01*
X138476944Y-98795960D01*
X138476940Y-98795959D01*
X138472651Y-98794700D01*
X138327349Y-98794700D01*
X138323060Y-98795959D01*
X138323055Y-98795960D01*
X138192222Y-98834377D01*
X138192219Y-98834377D01*
X138187932Y-98835637D01*
X138184173Y-98838052D01*
X138184170Y-98838054D01*
X138072990Y-98909505D01*
X138030305Y-98918791D01*
X137991966Y-98897856D01*
X137976700Y-98856927D01*
X137976700Y-98304096D01*
X137977235Y-98295939D01*
X137979046Y-98282180D01*
X137982650Y-98254808D01*
X137986869Y-98239060D01*
X138001169Y-98204539D01*
X138009323Y-98190418D01*
X138034649Y-98157416D01*
X138040021Y-98151290D01*
X138043965Y-98147347D01*
X138071567Y-98119750D01*
X138071570Y-98119742D01*
X139011315Y-97179997D01*
X139011603Y-97179754D01*
X139011978Y-97179579D01*
X139032081Y-97159332D01*
X139045995Y-97145318D01*
X139046334Y-97144979D01*
X139046355Y-97144958D01*
X139046364Y-97144967D01*
X139046465Y-97144865D01*
X139048383Y-97142931D01*
X139048569Y-97142743D01*
X139048569Y-97142742D01*
X139063787Y-97127526D01*
X139064020Y-97127183D01*
X139064215Y-97126968D01*
X139100893Y-97089993D01*
X139194262Y-96966444D01*
X139270195Y-96831477D01*
X139327319Y-96687536D01*
X139364598Y-96537228D01*
X139368168Y-96504583D01*
X139372019Y-96488802D01*
X139374641Y-96482035D01*
X139374641Y-96448721D01*
X139375008Y-96441957D01*
X139377698Y-96417244D01*
X139378296Y-96411753D01*
X139376441Y-96404196D01*
X139374641Y-96389303D01*
X139374641Y-94697369D01*
X139374642Y-94697366D01*
X139374641Y-94648601D01*
X139374644Y-94648576D01*
X139374648Y-94648576D01*
X139374646Y-94560177D01*
X139346986Y-94385556D01*
X139292350Y-94217411D01*
X139237879Y-94110508D01*
X139213199Y-94062072D01*
X139213198Y-94062070D01*
X139212084Y-94059884D01*
X139158724Y-93986440D01*
X139109609Y-93918839D01*
X139109604Y-93918834D01*
X139108164Y-93916851D01*
X139079550Y-93888237D01*
X138677526Y-93486213D01*
X138677481Y-93486182D01*
X138677401Y-93486109D01*
X138624986Y-93433694D01*
X138623248Y-93431956D01*
X138457584Y-93311592D01*
X138439091Y-93302169D01*
X138277316Y-93219737D01*
X138277307Y-93219733D01*
X138275132Y-93218625D01*
X138272802Y-93217868D01*
X138272800Y-93217867D01*
X138182795Y-93188620D01*
X138080383Y-93155342D01*
X138077953Y-93154957D01*
X137880558Y-93123687D01*
X137880554Y-93123686D01*
X137878132Y-93123303D01*
X137875687Y-93123302D01*
X137875676Y-93123302D01*
X137827464Y-93123301D01*
X137827462Y-93123300D01*
X137827460Y-93123300D01*
X137827452Y-93123300D01*
X137775746Y-93123300D01*
X137726968Y-93123298D01*
X137726956Y-93123298D01*
X137726951Y-93123299D01*
X137726949Y-93123300D01*
X137231628Y-93123300D01*
X137231621Y-93123299D01*
X137231615Y-93123297D01*
X137231593Y-93123297D01*
X137185890Y-93123299D01*
X137179765Y-93122998D01*
X137109720Y-93116104D01*
X137097701Y-93113714D01*
X137033297Y-93094179D01*
X137021977Y-93089491D01*
X136962614Y-93057763D01*
X136952426Y-93050955D01*
X136898158Y-93006419D01*
X136893613Y-93002300D01*
X136548556Y-92657243D01*
X136543166Y-92651097D01*
X136529396Y-92633152D01*
X136507821Y-92605035D01*
X136499664Y-92590908D01*
X136479025Y-92541084D01*
X136474805Y-92525334D01*
X136467235Y-92467851D01*
X136466700Y-92459691D01*
X136466700Y-91747999D01*
X136485006Y-91703805D01*
X136529200Y-91685499D01*
X136676922Y-91685499D01*
X136678162Y-91685499D01*
X136713627Y-91682709D01*
X136865390Y-91638618D01*
X137001420Y-91558170D01*
X137113170Y-91446420D01*
X137193618Y-91310390D01*
X137237709Y-91158627D01*
X137240500Y-91123163D01*
X137240499Y-90146838D01*
X137237709Y-90111373D01*
X137210417Y-90017434D01*
X137210417Y-89982566D01*
X137237709Y-89888627D01*
X137240500Y-89853163D01*
X137240500Y-89563000D01*
X137258806Y-89518806D01*
X137303000Y-89500500D01*
X140157001Y-89500500D01*
X140201195Y-89518806D01*
G37*
%TD.AperFunction*%
%TA.AperFunction,Conductor*%
G36*
X145281195Y-89518806D02*
G01*
X145299501Y-89563000D01*
X145299501Y-89853162D01*
X145299597Y-89854386D01*
X145299598Y-89854404D01*
X145302040Y-89885440D01*
X145302291Y-89888627D01*
X145303181Y-89891693D01*
X145303182Y-89891694D01*
X145329581Y-89982562D01*
X145329581Y-90017434D01*
X145302291Y-90111373D01*
X145302040Y-90114556D01*
X145302040Y-90114559D01*
X145299597Y-90145598D01*
X145299596Y-90145610D01*
X145299500Y-90146837D01*
X145299500Y-90148074D01*
X145299500Y-90148075D01*
X145299500Y-91121922D01*
X145299500Y-91121947D01*
X145299501Y-91123162D01*
X145299597Y-91124385D01*
X145299598Y-91124404D01*
X145302040Y-91155440D01*
X145302291Y-91158627D01*
X145346382Y-91310390D01*
X145348385Y-91313777D01*
X145348386Y-91313779D01*
X145424827Y-91443034D01*
X145424829Y-91443036D01*
X145426830Y-91446420D01*
X145538580Y-91558170D01*
X145674610Y-91638618D01*
X145826373Y-91682709D01*
X145861837Y-91685500D01*
X146010800Y-91685500D01*
X146054994Y-91703806D01*
X146073300Y-91748000D01*
X146073300Y-92022653D01*
X146072999Y-92028781D01*
X146059534Y-92165445D01*
X146057143Y-92177461D01*
X146018174Y-92305912D01*
X146013486Y-92317231D01*
X145950204Y-92435621D01*
X145943397Y-92445808D01*
X145856186Y-92552074D01*
X145852067Y-92556618D01*
X145106516Y-93302169D01*
X145101972Y-93306288D01*
X144995816Y-93393409D01*
X144985629Y-93400216D01*
X144867237Y-93463499D01*
X144855918Y-93468187D01*
X144727464Y-93507157D01*
X144715448Y-93509548D01*
X144578923Y-93522999D01*
X144572795Y-93523300D01*
X143518901Y-93523300D01*
X143474707Y-93504994D01*
X143456401Y-93460800D01*
X143474707Y-93416606D01*
X143579721Y-93311592D01*
X143895632Y-92995679D01*
X143895659Y-92995659D01*
X143895663Y-92995663D01*
X143938713Y-92952612D01*
X144006360Y-92851368D01*
X144052954Y-92738870D01*
X144076704Y-92619444D01*
X144076700Y-92558562D01*
X144076700Y-92554082D01*
X144076700Y-91747999D01*
X144095006Y-91703805D01*
X144139200Y-91685499D01*
X144296922Y-91685499D01*
X144298162Y-91685499D01*
X144333627Y-91682709D01*
X144485390Y-91638618D01*
X144621420Y-91558170D01*
X144733170Y-91446420D01*
X144813618Y-91310390D01*
X144857709Y-91158627D01*
X144860500Y-91123163D01*
X144860499Y-90146838D01*
X144857709Y-90111373D01*
X144830417Y-90017434D01*
X144830417Y-89982566D01*
X144857709Y-89888627D01*
X144860500Y-89853163D01*
X144860500Y-89563000D01*
X144878806Y-89518806D01*
X144923000Y-89500500D01*
X145237001Y-89500500D01*
X145281195Y-89518806D01*
G37*
%TD.AperFunction*%
%TA.AperFunction,Conductor*%
G36*
X135121195Y-89518806D02*
G01*
X135139501Y-89563000D01*
X135139501Y-89853162D01*
X135139597Y-89854386D01*
X135139598Y-89854404D01*
X135142040Y-89885440D01*
X135142291Y-89888627D01*
X135143181Y-89891693D01*
X135143182Y-89891694D01*
X135169581Y-89982562D01*
X135169581Y-90017434D01*
X135142291Y-90111373D01*
X135142040Y-90114556D01*
X135142040Y-90114559D01*
X135139597Y-90145598D01*
X135139596Y-90145610D01*
X135139500Y-90146837D01*
X135139500Y-90148074D01*
X135139500Y-90148075D01*
X135139500Y-91121922D01*
X135139500Y-91121947D01*
X135139501Y-91123162D01*
X135139597Y-91124385D01*
X135139598Y-91124404D01*
X135142040Y-91155440D01*
X135142291Y-91158627D01*
X135186382Y-91310390D01*
X135188385Y-91313777D01*
X135188386Y-91313779D01*
X135264827Y-91443034D01*
X135264829Y-91443036D01*
X135266830Y-91446420D01*
X135378580Y-91558170D01*
X135514610Y-91638618D01*
X135666373Y-91682709D01*
X135701837Y-91685500D01*
X135850800Y-91685500D01*
X135894994Y-91703806D01*
X135913300Y-91747999D01*
X135913300Y-92414941D01*
X135913297Y-92414949D01*
X135913297Y-92414969D01*
X135913297Y-92414970D01*
X135913299Y-92463701D01*
X135913295Y-92463739D01*
X135913290Y-92463739D01*
X135913290Y-92463777D01*
X135913290Y-92463778D01*
X135913292Y-92526053D01*
X135913292Y-92526064D01*
X135913293Y-92528508D01*
X135913676Y-92530930D01*
X135913677Y-92530933D01*
X135933178Y-92654030D01*
X135933180Y-92654039D01*
X135933562Y-92656449D01*
X135934314Y-92658765D01*
X135934317Y-92658775D01*
X135961265Y-92741703D01*
X135973594Y-92779644D01*
X135974708Y-92781830D01*
X135974710Y-92781835D01*
X136021290Y-92873248D01*
X136032405Y-92895061D01*
X136033849Y-92897048D01*
X136033850Y-92897050D01*
X136105512Y-92995683D01*
X136108546Y-92999858D01*
X136110284Y-93001596D01*
X136117768Y-93009080D01*
X136117769Y-93009082D01*
X136504311Y-93395624D01*
X136504337Y-93395662D01*
X136504331Y-93395669D01*
X136504363Y-93395701D01*
X136504366Y-93395705D01*
X136525267Y-93416606D01*
X136543573Y-93460800D01*
X136525267Y-93504994D01*
X136481073Y-93523300D01*
X135303070Y-93523300D01*
X135296944Y-93522999D01*
X135171711Y-93510664D01*
X135159695Y-93508274D01*
X135042222Y-93472640D01*
X135030905Y-93467952D01*
X134966811Y-93433694D01*
X134922647Y-93410088D01*
X134912460Y-93403282D01*
X134815216Y-93323478D01*
X134810671Y-93319358D01*
X134047831Y-92556518D01*
X134043720Y-92551983D01*
X133999054Y-92497557D01*
X133992251Y-92487375D01*
X133960526Y-92428018D01*
X133955838Y-92416698D01*
X133936303Y-92352292D01*
X133933913Y-92340273D01*
X133933169Y-92332718D01*
X133927000Y-92270049D01*
X133926700Y-92263924D01*
X133926703Y-92218385D01*
X133926700Y-92218377D01*
X133926700Y-91747999D01*
X133945006Y-91703805D01*
X133989200Y-91685499D01*
X134136922Y-91685499D01*
X134138162Y-91685499D01*
X134173627Y-91682709D01*
X134325390Y-91638618D01*
X134461420Y-91558170D01*
X134573170Y-91446420D01*
X134653618Y-91310390D01*
X134697709Y-91158627D01*
X134700500Y-91123163D01*
X134700499Y-90146838D01*
X134697709Y-90111373D01*
X134670417Y-90017434D01*
X134670417Y-89982566D01*
X134697709Y-89888627D01*
X134700500Y-89853163D01*
X134700500Y-89563000D01*
X134718806Y-89518806D01*
X134763000Y-89500500D01*
X135077001Y-89500500D01*
X135121195Y-89518806D01*
G37*
%TD.AperFunction*%
%TD*%
%TA.AperFunction,NonConductor*%
G36*
X132581195Y-89518806D02*
G01*
X132599501Y-89563000D01*
X132599501Y-89853162D01*
X132599597Y-89854386D01*
X132599598Y-89854404D01*
X132602040Y-89885440D01*
X132602291Y-89888627D01*
X132603181Y-89891693D01*
X132603182Y-89891694D01*
X132629581Y-89982562D01*
X132629581Y-90017434D01*
X132602291Y-90111373D01*
X132602040Y-90114556D01*
X132602040Y-90114559D01*
X132599597Y-90145598D01*
X132599596Y-90145610D01*
X132599500Y-90146837D01*
X132599500Y-90148074D01*
X132599500Y-90148075D01*
X132599500Y-91121922D01*
X132599500Y-91121947D01*
X132599501Y-91123162D01*
X132599597Y-91124385D01*
X132599598Y-91124404D01*
X132602040Y-91155440D01*
X132602291Y-91158627D01*
X132646382Y-91310390D01*
X132648385Y-91313777D01*
X132648386Y-91313779D01*
X132724827Y-91443034D01*
X132724829Y-91443036D01*
X132726830Y-91446420D01*
X132838580Y-91558170D01*
X132974610Y-91638618D01*
X133126373Y-91682709D01*
X133161837Y-91685500D01*
X133310800Y-91685500D01*
X133354994Y-91703806D01*
X133373300Y-91747999D01*
X133373300Y-92292798D01*
X133373309Y-92292851D01*
X133373315Y-92292976D01*
X133373314Y-92330383D01*
X133373314Y-92342660D01*
X133373697Y-92345079D01*
X133373698Y-92345091D01*
X133396549Y-92489412D01*
X133396551Y-92489420D01*
X133396934Y-92491839D01*
X133397690Y-92494166D01*
X133397692Y-92494174D01*
X133442843Y-92633152D01*
X133442846Y-92633160D01*
X133443602Y-92635486D01*
X133512168Y-92770063D01*
X133513614Y-92772053D01*
X133599499Y-92890268D01*
X133599503Y-92890273D01*
X133600944Y-92892256D01*
X133602682Y-92893994D01*
X133617768Y-92909080D01*
X133617769Y-92909082D01*
X134386996Y-93678309D01*
X134387000Y-93678314D01*
X134387002Y-93678317D01*
X134387006Y-93678321D01*
X134387007Y-93678322D01*
X134404343Y-93695656D01*
X134421495Y-93712808D01*
X134421501Y-93712816D01*
X134421500Y-93712818D01*
X134490639Y-93781957D01*
X134492623Y-93783398D01*
X134492626Y-93783401D01*
X134593631Y-93856784D01*
X134648848Y-93896901D01*
X134823090Y-93985680D01*
X134991925Y-94040537D01*
X134997532Y-94042359D01*
X135009074Y-94046109D01*
X135202222Y-94076700D01*
X135248276Y-94076700D01*
X135300000Y-94076700D01*
X135348790Y-94076700D01*
X137668372Y-94076700D01*
X137668377Y-94076700D01*
X137668385Y-94076703D01*
X137714111Y-94076700D01*
X137720231Y-94077000D01*
X137790286Y-94083896D01*
X137802292Y-94086283D01*
X137866704Y-94105820D01*
X137878021Y-94110508D01*
X137916567Y-94131109D01*
X137933148Y-94139972D01*
X137937381Y-94142234D01*
X137947570Y-94149042D01*
X138001846Y-94193585D01*
X138006391Y-94197704D01*
X138301443Y-94492756D01*
X138306826Y-94498893D01*
X138362429Y-94571355D01*
X138362790Y-94571825D01*
X138370947Y-94585955D01*
X138404539Y-94667053D01*
X138408762Y-94682814D01*
X138420759Y-94773945D01*
X138421294Y-94782102D01*
X138421294Y-94825187D01*
X138421294Y-94826791D01*
X138421295Y-94826792D01*
X138421295Y-94826793D01*
X138421295Y-96417244D01*
X138419252Y-96433090D01*
X138412459Y-96459006D01*
X138407864Y-96471188D01*
X138389528Y-96507729D01*
X138382509Y-96518693D01*
X138365632Y-96539830D01*
X138334069Y-96560898D01*
X138296133Y-96559820D01*
X138265814Y-96536993D01*
X138254483Y-96501433D01*
X138254634Y-96500000D01*
X138238143Y-96343103D01*
X138189392Y-96193063D01*
X138110512Y-96056437D01*
X138004949Y-95939198D01*
X137877317Y-95846468D01*
X137851373Y-95834917D01*
X137736195Y-95783635D01*
X137736189Y-95783633D01*
X137733195Y-95782300D01*
X137729985Y-95781617D01*
X137729983Y-95781617D01*
X137582082Y-95750180D01*
X137582078Y-95750179D01*
X137578881Y-95749500D01*
X137544170Y-95749500D01*
X137500000Y-95749500D01*
X137374802Y-95749500D01*
X137372602Y-95749816D01*
X137372592Y-95749817D01*
X137129164Y-95784818D01*
X137129160Y-95784818D01*
X137126954Y-95785136D01*
X137124812Y-95785764D01*
X137124807Y-95785766D01*
X136888849Y-95855048D01*
X136888836Y-95855052D01*
X136886700Y-95855680D01*
X136884676Y-95856603D01*
X136884666Y-95856608D01*
X136660963Y-95958771D01*
X136660957Y-95958773D01*
X136658932Y-95959699D01*
X136657060Y-95960901D01*
X136657049Y-95960908D01*
X136450161Y-96093867D01*
X136450157Y-96093869D01*
X136448285Y-96095073D01*
X136446606Y-96096527D01*
X136446599Y-96096533D01*
X136260733Y-96257587D01*
X136260725Y-96257594D01*
X136259048Y-96259048D01*
X136257594Y-96260725D01*
X136257587Y-96260733D01*
X136096533Y-96446599D01*
X136096527Y-96446606D01*
X136095073Y-96448285D01*
X136093869Y-96450157D01*
X136093867Y-96450161D01*
X135960908Y-96657049D01*
X135960901Y-96657060D01*
X135959699Y-96658932D01*
X135958773Y-96660957D01*
X135958771Y-96660963D01*
X135856608Y-96884666D01*
X135856603Y-96884676D01*
X135855680Y-96886700D01*
X135855052Y-96888836D01*
X135855048Y-96888849D01*
X135785766Y-97124807D01*
X135785136Y-97126954D01*
X135784818Y-97129160D01*
X135784818Y-97129164D01*
X135749817Y-97372592D01*
X135749816Y-97372602D01*
X135749500Y-97374802D01*
X135749500Y-97475326D01*
X135749500Y-101455829D01*
X135749501Y-101455829D01*
X135749501Y-101499999D01*
X135749501Y-101625197D01*
X135749817Y-101627397D01*
X135749818Y-101627406D01*
X135784818Y-101870835D01*
X135785136Y-101873045D01*
X135785765Y-101875189D01*
X135785766Y-101875191D01*
X135850125Y-102094379D01*
X135855681Y-102113299D01*
X135856605Y-102115322D01*
X135856609Y-102115333D01*
X135949878Y-102319563D01*
X135959699Y-102341067D01*
X135960907Y-102342946D01*
X135960911Y-102342954D01*
X136093867Y-102549837D01*
X136093872Y-102549843D01*
X136095074Y-102551714D01*
X136096533Y-102553398D01*
X136096534Y-102553399D01*
X136192045Y-102663625D01*
X136259049Y-102740951D01*
X136448286Y-102904926D01*
X136450158Y-102906129D01*
X136450162Y-102906132D01*
X136657045Y-103039088D01*
X136657048Y-103039089D01*
X136658933Y-103040301D01*
X136660972Y-103041232D01*
X136884666Y-103143390D01*
X136884670Y-103143391D01*
X136886701Y-103144319D01*
X137126955Y-103214864D01*
X137374803Y-103250499D01*
X137475327Y-103250499D01*
X137500001Y-103250499D01*
X137544171Y-103250499D01*
X142455829Y-103250499D01*
X142524673Y-103250499D01*
X142622964Y-103250499D01*
X142625197Y-103250499D01*
X142873045Y-103214864D01*
X143113299Y-103144319D01*
X143341067Y-103040301D01*
X143551714Y-102904926D01*
X143740951Y-102740951D01*
X143904926Y-102551714D01*
X144040301Y-102341067D01*
X144144319Y-102113299D01*
X144214864Y-101873045D01*
X144250499Y-101625197D01*
X144250499Y-101499999D01*
X144250499Y-101455829D01*
X144250499Y-99500000D01*
X145094506Y-99500000D01*
X145094598Y-99501697D01*
X145111058Y-99805300D01*
X145114469Y-99868199D01*
X145114739Y-99869848D01*
X145114741Y-99869863D01*
X145173850Y-100230409D01*
X145173853Y-100230424D01*
X145174125Y-100232081D01*
X145272773Y-100587379D01*
X145273399Y-100588950D01*
X145273400Y-100588953D01*
X145384467Y-100867711D01*
X145409257Y-100929930D01*
X145410049Y-100931424D01*
X145410050Y-100931426D01*
X145554580Y-101204039D01*
X145581978Y-101255716D01*
X145788910Y-101560917D01*
X145789994Y-101562193D01*
X145790000Y-101562201D01*
X145938538Y-101737073D01*
X146027627Y-101841956D01*
X146028855Y-101843119D01*
X146261104Y-102063118D01*
X146295330Y-102095538D01*
X146588881Y-102318690D01*
X146715171Y-102394676D01*
X146903388Y-102507923D01*
X146903394Y-102507926D01*
X146904838Y-102508795D01*
X147239497Y-102663625D01*
X147588934Y-102781364D01*
X147949052Y-102860632D01*
X148315630Y-102900500D01*
X148682670Y-102900500D01*
X148684370Y-102900500D01*
X149050948Y-102860632D01*
X149411066Y-102781364D01*
X149760503Y-102663625D01*
X150095162Y-102508795D01*
X150411119Y-102318690D01*
X150704670Y-102095538D01*
X150972373Y-101841956D01*
X151211090Y-101560917D01*
X151418022Y-101255716D01*
X151590743Y-100929930D01*
X151727227Y-100587379D01*
X151825875Y-100232081D01*
X151885531Y-99868199D01*
X151905494Y-99500000D01*
X151885531Y-99131801D01*
X151834486Y-98820442D01*
X151826149Y-98769590D01*
X151826148Y-98769589D01*
X151825875Y-98767919D01*
X151727227Y-98412621D01*
X151590743Y-98070070D01*
X151418022Y-97744284D01*
X151211090Y-97439083D01*
X151189852Y-97414080D01*
X150973467Y-97159332D01*
X150972373Y-97158044D01*
X150771874Y-96968121D01*
X150705893Y-96905620D01*
X150705888Y-96905615D01*
X150704670Y-96904462D01*
X150684131Y-96888849D01*
X150412470Y-96682337D01*
X150412469Y-96682336D01*
X150411119Y-96681310D01*
X150210993Y-96560898D01*
X150096611Y-96492076D01*
X150096599Y-96492069D01*
X150095162Y-96491205D01*
X150093628Y-96490495D01*
X150093620Y-96490491D01*
X149762048Y-96337090D01*
X149760503Y-96336375D01*
X149758891Y-96335832D01*
X149758889Y-96335831D01*
X149412673Y-96219177D01*
X149412665Y-96219174D01*
X149411066Y-96218636D01*
X149409429Y-96218275D01*
X149409416Y-96218272D01*
X149052604Y-96139732D01*
X149052594Y-96139730D01*
X149050948Y-96139368D01*
X149049273Y-96139185D01*
X149049262Y-96139184D01*
X148686056Y-96099683D01*
X148686049Y-96099682D01*
X148684370Y-96099500D01*
X148315630Y-96099500D01*
X148313951Y-96099682D01*
X148313943Y-96099683D01*
X147950737Y-96139184D01*
X147950723Y-96139186D01*
X147949052Y-96139368D01*
X147947408Y-96139729D01*
X147947395Y-96139732D01*
X147590583Y-96218272D01*
X147590565Y-96218276D01*
X147588934Y-96218636D01*
X147587339Y-96219173D01*
X147587326Y-96219177D01*
X147241110Y-96335831D01*
X147241101Y-96335834D01*
X147239497Y-96336375D01*
X147237955Y-96337088D01*
X147237951Y-96337090D01*
X146906379Y-96490491D01*
X146906363Y-96490499D01*
X146904838Y-96491205D01*
X146903408Y-96492065D01*
X146903388Y-96492076D01*
X146590333Y-96680436D01*
X146590328Y-96680439D01*
X146588881Y-96681310D01*
X146587538Y-96682330D01*
X146587529Y-96682337D01*
X146296672Y-96903441D01*
X146296662Y-96903448D01*
X146295330Y-96904462D01*
X146294120Y-96905607D01*
X146294106Y-96905620D01*
X146028855Y-97156880D01*
X146028847Y-97156887D01*
X146027627Y-97158044D01*
X146026541Y-97159322D01*
X146026532Y-97159332D01*
X145790000Y-97437798D01*
X145789987Y-97437814D01*
X145788910Y-97439083D01*
X145787971Y-97440466D01*
X145787964Y-97440477D01*
X145582926Y-97742885D01*
X145582921Y-97742892D01*
X145581978Y-97744284D01*
X145581191Y-97745767D01*
X145581184Y-97745780D01*
X145410050Y-98068573D01*
X145410045Y-98068582D01*
X145409257Y-98070070D01*
X145408634Y-98071632D01*
X145408631Y-98071640D01*
X145273400Y-98411046D01*
X145273397Y-98411054D01*
X145272773Y-98412621D01*
X145272320Y-98414249D01*
X145272320Y-98414252D01*
X145262981Y-98447890D01*
X145174125Y-98767919D01*
X145173854Y-98769571D01*
X145173850Y-98769590D01*
X145114741Y-99130136D01*
X145114739Y-99130153D01*
X145114469Y-99131801D01*
X145114377Y-99133482D01*
X145114377Y-99133490D01*
X145103221Y-99339253D01*
X145094506Y-99500000D01*
X144250499Y-99500000D01*
X144250499Y-97475327D01*
X144250499Y-97475326D01*
X144250499Y-97374803D01*
X144214864Y-97126955D01*
X144144319Y-96886701D01*
X144119116Y-96831515D01*
X144054305Y-96689597D01*
X144040301Y-96658933D01*
X144018333Y-96624750D01*
X143906132Y-96450162D01*
X143906129Y-96450158D01*
X143904926Y-96448286D01*
X143740951Y-96259049D01*
X143551714Y-96095074D01*
X143549843Y-96093872D01*
X143549837Y-96093867D01*
X143342954Y-95960911D01*
X143342946Y-95960907D01*
X143341067Y-95959699D01*
X143339031Y-95958769D01*
X143339027Y-95958767D01*
X143115333Y-95856609D01*
X143115322Y-95856605D01*
X143113299Y-95855681D01*
X143111154Y-95855051D01*
X143111151Y-95855050D01*
X142875191Y-95785766D01*
X142875189Y-95785765D01*
X142873045Y-95785136D01*
X142870838Y-95784818D01*
X142870835Y-95784818D01*
X142627406Y-95749818D01*
X142627397Y-95749817D01*
X142625197Y-95749501D01*
X142622964Y-95749501D01*
X142544176Y-95749501D01*
X142544172Y-95749500D01*
X142544170Y-95749500D01*
X142500000Y-95749500D01*
X142421119Y-95749500D01*
X142417922Y-95750179D01*
X142417917Y-95750180D01*
X142270016Y-95781617D01*
X142270011Y-95781618D01*
X142266805Y-95782300D01*
X142263813Y-95783631D01*
X142263804Y-95783635D01*
X142125674Y-95845136D01*
X142125671Y-95845137D01*
X142122683Y-95846468D01*
X142120042Y-95848386D01*
X142120038Y-95848389D01*
X141997695Y-95937276D01*
X141997689Y-95937281D01*
X141995051Y-95939198D01*
X141992866Y-95941623D01*
X141992861Y-95941629D01*
X141891681Y-96054001D01*
X141889488Y-96056437D01*
X141887853Y-96059268D01*
X141887850Y-96059273D01*
X141841608Y-96139368D01*
X141810608Y-96193063D01*
X141809599Y-96196167D01*
X141809596Y-96196175D01*
X141801296Y-96221722D01*
X141774511Y-96255698D01*
X141732078Y-96264139D01*
X141694330Y-96242998D01*
X141679355Y-96202408D01*
X141679355Y-94825222D01*
X141679355Y-94825216D01*
X141679358Y-94825209D01*
X141679355Y-94780515D01*
X141679889Y-94772360D01*
X141689759Y-94697369D01*
X141691808Y-94681800D01*
X141696028Y-94666050D01*
X141729399Y-94585480D01*
X141737551Y-94571360D01*
X141793097Y-94498968D01*
X141798474Y-94492837D01*
X142119740Y-94171571D01*
X142119750Y-94171567D01*
X142151350Y-94139961D01*
X142157486Y-94134581D01*
X142190413Y-94109312D01*
X142204534Y-94101158D01*
X142239052Y-94086859D01*
X142254807Y-94082638D01*
X142295845Y-94077234D01*
X142304003Y-94076700D01*
X144526949Y-94076700D01*
X144526951Y-94076700D01*
X144526956Y-94076702D01*
X144575692Y-94076700D01*
X144575746Y-94076707D01*
X144575746Y-94076714D01*
X144678133Y-94076711D01*
X144880386Y-94044671D01*
X145075137Y-93981388D01*
X145257592Y-93888420D01*
X145423257Y-93768055D01*
X145459080Y-93732231D01*
X145459082Y-93732231D01*
X146263787Y-92927526D01*
X146263818Y-92927479D01*
X146263885Y-92927406D01*
X146316301Y-92874991D01*
X146316301Y-92874990D01*
X146318044Y-92873248D01*
X146438408Y-92707584D01*
X146531375Y-92525132D01*
X146594658Y-92330383D01*
X146626697Y-92128132D01*
X146626698Y-92077463D01*
X146626700Y-92077460D01*
X146626700Y-92025726D01*
X146626702Y-91976956D01*
X146626700Y-91976951D01*
X146626700Y-91747999D01*
X146645006Y-91703805D01*
X146689200Y-91685499D01*
X146836922Y-91685499D01*
X146838162Y-91685499D01*
X146873627Y-91682709D01*
X147025390Y-91638618D01*
X147161420Y-91558170D01*
X147273170Y-91446420D01*
X147353618Y-91310390D01*
X147397709Y-91158627D01*
X147400500Y-91123163D01*
X147400499Y-90146838D01*
X147397709Y-90111373D01*
X147370417Y-90017434D01*
X147370417Y-89982566D01*
X147397709Y-89888627D01*
X147400500Y-89853163D01*
X147400500Y-89563000D01*
X147418806Y-89518806D01*
X147463000Y-89500500D01*
X151955830Y-89500500D01*
X151996930Y-89500500D01*
X152003056Y-89500801D01*
X152140096Y-89514297D01*
X152152105Y-89516686D01*
X152280937Y-89555767D01*
X152292247Y-89560452D01*
X152410976Y-89623915D01*
X152421155Y-89630716D01*
X152525220Y-89716119D01*
X152533882Y-89724781D01*
X152619280Y-89828840D01*
X152626086Y-89839025D01*
X152634306Y-89854404D01*
X152689545Y-89957748D01*
X152694234Y-89969067D01*
X152733312Y-90097890D01*
X152735702Y-90109907D01*
X152749199Y-90246944D01*
X152749500Y-90253070D01*
X152749500Y-99498562D01*
X152749433Y-99501449D01*
X152731505Y-99889200D01*
X152730973Y-99894948D01*
X152677542Y-100277986D01*
X152676481Y-100283660D01*
X152587939Y-100660118D01*
X152586359Y-100665671D01*
X152463460Y-101032352D01*
X152461375Y-101037735D01*
X152305160Y-101391527D01*
X152302586Y-101396695D01*
X152114403Y-101734549D01*
X152111364Y-101739457D01*
X151892807Y-102058511D01*
X151889328Y-102063118D01*
X151642263Y-102360647D01*
X151638374Y-102364913D01*
X151364913Y-102638374D01*
X151360647Y-102642263D01*
X151063118Y-102889328D01*
X151058511Y-102892807D01*
X150739457Y-103111364D01*
X150734549Y-103114403D01*
X150396695Y-103302586D01*
X150391527Y-103305160D01*
X150037735Y-103461375D01*
X150032352Y-103463460D01*
X149665671Y-103586359D01*
X149660118Y-103587939D01*
X149283660Y-103676481D01*
X149277986Y-103677542D01*
X148894948Y-103730973D01*
X148889200Y-103731505D01*
X148501449Y-103749433D01*
X148498562Y-103749500D01*
X131501438Y-103749500D01*
X131498551Y-103749433D01*
X131110799Y-103731505D01*
X131105051Y-103730973D01*
X130722013Y-103677542D01*
X130716339Y-103676481D01*
X130339881Y-103587939D01*
X130334328Y-103586359D01*
X129967647Y-103463460D01*
X129962264Y-103461375D01*
X129608472Y-103305160D01*
X129603304Y-103302586D01*
X129265450Y-103114403D01*
X129260542Y-103111364D01*
X128941488Y-102892807D01*
X128936881Y-102889328D01*
X128639352Y-102642263D01*
X128635086Y-102638374D01*
X128361625Y-102364913D01*
X128357736Y-102360647D01*
X128127140Y-102082951D01*
X128110669Y-102063116D01*
X128107192Y-102058511D01*
X127958848Y-101841956D01*
X127888634Y-101739455D01*
X127885596Y-101734549D01*
X127697411Y-101396691D01*
X127694839Y-101391527D01*
X127635490Y-101257114D01*
X127538622Y-101037730D01*
X127536539Y-101032352D01*
X127527112Y-101004226D01*
X127413638Y-100665664D01*
X127412060Y-100660118D01*
X127412029Y-100659987D01*
X127323516Y-100283653D01*
X127322457Y-100277986D01*
X127316281Y-100233713D01*
X127269025Y-99894945D01*
X127268494Y-99889199D01*
X127262722Y-99764363D01*
X127250715Y-99504642D01*
X127250567Y-99501448D01*
X127250533Y-99500000D01*
X128094506Y-99500000D01*
X128094598Y-99501697D01*
X128111058Y-99805300D01*
X128114469Y-99868199D01*
X128114739Y-99869848D01*
X128114741Y-99869863D01*
X128173850Y-100230409D01*
X128173853Y-100230424D01*
X128174125Y-100232081D01*
X128272773Y-100587379D01*
X128273399Y-100588950D01*
X128273400Y-100588953D01*
X128384467Y-100867711D01*
X128409257Y-100929930D01*
X128410049Y-100931424D01*
X128410050Y-100931426D01*
X128554580Y-101204039D01*
X128581978Y-101255716D01*
X128788910Y-101560917D01*
X128789994Y-101562193D01*
X128790000Y-101562201D01*
X128938538Y-101737073D01*
X129027627Y-101841956D01*
X129028855Y-101843119D01*
X129261104Y-102063118D01*
X129295330Y-102095538D01*
X129588881Y-102318690D01*
X129715171Y-102394676D01*
X129903388Y-102507923D01*
X129903394Y-102507926D01*
X129904838Y-102508795D01*
X130239497Y-102663625D01*
X130588934Y-102781364D01*
X130949052Y-102860632D01*
X131315630Y-102900500D01*
X131682670Y-102900500D01*
X131684370Y-102900500D01*
X132050948Y-102860632D01*
X132411066Y-102781364D01*
X132760503Y-102663625D01*
X133095162Y-102508795D01*
X133411119Y-102318690D01*
X133704670Y-102095538D01*
X133972373Y-101841956D01*
X134211090Y-101560917D01*
X134418022Y-101255716D01*
X134590743Y-100929930D01*
X134727227Y-100587379D01*
X134825875Y-100232081D01*
X134885531Y-99868199D01*
X134905494Y-99500000D01*
X134885531Y-99131801D01*
X134834486Y-98820442D01*
X134826149Y-98769590D01*
X134826148Y-98769589D01*
X134825875Y-98767919D01*
X134727227Y-98412621D01*
X134590743Y-98070070D01*
X134418022Y-97744284D01*
X134211090Y-97439083D01*
X134189852Y-97414080D01*
X133973467Y-97159332D01*
X133972373Y-97158044D01*
X133771874Y-96968121D01*
X133705893Y-96905620D01*
X133705888Y-96905615D01*
X133704670Y-96904462D01*
X133684131Y-96888849D01*
X133412470Y-96682337D01*
X133412469Y-96682336D01*
X133411119Y-96681310D01*
X133210993Y-96560898D01*
X133096611Y-96492076D01*
X133096599Y-96492069D01*
X133095162Y-96491205D01*
X133093628Y-96490495D01*
X133093620Y-96490491D01*
X132762048Y-96337090D01*
X132760503Y-96336375D01*
X132758891Y-96335832D01*
X132758889Y-96335831D01*
X132412673Y-96219177D01*
X132412665Y-96219174D01*
X132411066Y-96218636D01*
X132409429Y-96218275D01*
X132409416Y-96218272D01*
X132052604Y-96139732D01*
X132052594Y-96139730D01*
X132050948Y-96139368D01*
X132049273Y-96139185D01*
X132049262Y-96139184D01*
X131686056Y-96099683D01*
X131686049Y-96099682D01*
X131684370Y-96099500D01*
X131315630Y-96099500D01*
X131313951Y-96099682D01*
X131313943Y-96099683D01*
X130950737Y-96139184D01*
X130950723Y-96139186D01*
X130949052Y-96139368D01*
X130947408Y-96139729D01*
X130947395Y-96139732D01*
X130590583Y-96218272D01*
X130590565Y-96218276D01*
X130588934Y-96218636D01*
X130587339Y-96219173D01*
X130587326Y-96219177D01*
X130241110Y-96335831D01*
X130241101Y-96335834D01*
X130239497Y-96336375D01*
X130237955Y-96337088D01*
X130237951Y-96337090D01*
X129906379Y-96490491D01*
X129906363Y-96490499D01*
X129904838Y-96491205D01*
X129903408Y-96492065D01*
X129903388Y-96492076D01*
X129590333Y-96680436D01*
X129590328Y-96680439D01*
X129588881Y-96681310D01*
X129587538Y-96682330D01*
X129587529Y-96682337D01*
X129296672Y-96903441D01*
X129296662Y-96903448D01*
X129295330Y-96904462D01*
X129294120Y-96905607D01*
X129294106Y-96905620D01*
X129028855Y-97156880D01*
X129028847Y-97156887D01*
X129027627Y-97158044D01*
X129026541Y-97159322D01*
X129026532Y-97159332D01*
X128790000Y-97437798D01*
X128789987Y-97437814D01*
X128788910Y-97439083D01*
X128787971Y-97440466D01*
X128787964Y-97440477D01*
X128582926Y-97742885D01*
X128582921Y-97742892D01*
X128581978Y-97744284D01*
X128581191Y-97745767D01*
X128581184Y-97745780D01*
X128410050Y-98068573D01*
X128410045Y-98068582D01*
X128409257Y-98070070D01*
X128408634Y-98071632D01*
X128408631Y-98071640D01*
X128273400Y-98411046D01*
X128273397Y-98411054D01*
X128272773Y-98412621D01*
X128272320Y-98414249D01*
X128272320Y-98414252D01*
X128262981Y-98447890D01*
X128174125Y-98767919D01*
X128173854Y-98769571D01*
X128173850Y-98769590D01*
X128114741Y-99130136D01*
X128114739Y-99130153D01*
X128114469Y-99131801D01*
X128114377Y-99133482D01*
X128114377Y-99133490D01*
X128103221Y-99339253D01*
X128094506Y-99500000D01*
X127250533Y-99500000D01*
X127250500Y-99498562D01*
X127250500Y-90253070D01*
X127250801Y-90246944D01*
X127260782Y-90145598D01*
X127264298Y-90109901D01*
X127266685Y-90097896D01*
X127305768Y-89969058D01*
X127310450Y-89957755D01*
X127373917Y-89839018D01*
X127380712Y-89828849D01*
X127466124Y-89724773D01*
X127474773Y-89716124D01*
X127578849Y-89630712D01*
X127589018Y-89623917D01*
X127707755Y-89560450D01*
X127719058Y-89555768D01*
X127847896Y-89516685D01*
X127859901Y-89514298D01*
X127996943Y-89500801D01*
X128003070Y-89500500D01*
X128044170Y-89500500D01*
X132537001Y-89500500D01*
X132581195Y-89518806D01*
G37*
%TD.AperFunction*%
M02*
