M48
; DRILL file {KiCad (7.0.0)} date Sat Jun 10 23:20:26 2023
; FORMAT={-:-/ absolute / inch / decimal}
; #@! TF.CreationDate,2023-06-10T23:20:26+02:00
; #@! TF.GenerationSoftware,Kicad,Pcbnew,(7.0.0)
; #@! TF.FileFunction,Plated,1,2,PTH
FMAT,2
INCH
; #@! TA.AperFunction,Plated,PTH,ViaDrill
T1C0.0120
; #@! TA.AperFunction,Plated,PTH,ComponentDrill
T2C0.0197
; #@! TA.AperFunction,Plated,PTH,ComponentDrill
T3C0.0394
; #@! TA.AperFunction,Plated,PTH,ComponentDrill
T4C0.1260
%
G90
G05
T1
X5.4488Y-3.8701
X5.4488Y-3.9094
X5.4488Y-3.9646
X5.5118Y-3.9213
X5.5118Y-3.9528
X5.5748Y-3.8701
X5.5748Y-3.9094
X5.5748Y-3.9646
T2
X5.0827Y-3.9173
X5.1104Y-3.8505
X5.1104Y-3.9841
X5.1772Y-3.8228
X5.1772Y-4.0118
X5.244Y-3.8505
X5.244Y-3.9841
X5.2717Y-3.9173
X5.752Y-3.9173
X5.7796Y-3.8505
X5.7796Y-3.9841
X5.8465Y-3.8228
X5.8465Y-4.0118
X5.9133Y-3.8505
X5.9133Y-3.9841
X5.9409Y-3.9173
T3
X5.2618Y-3.5183
X5.2618Y-3.5683
X5.3618Y-3.5183
X5.3618Y-3.5683
X5.4618Y-3.5183
X5.4618Y-3.5683
X5.5618Y-3.5183
X5.5618Y-3.5683
X5.6618Y-3.5183
X5.6618Y-3.5683
X5.7618Y-3.5183
X5.7618Y-3.5683
T4
X5.1772Y-3.9173
X5.8465Y-3.9173
T0
M30
