%TF.GenerationSoftware,KiCad,Pcbnew,(7.0.0)*%
%TF.CreationDate,2023-06-13T00:35:04+02:00*%
%TF.ProjectId,TMP117 Breakout,544d5031-3137-4204-9272-65616b6f7574,rev?*%
%TF.SameCoordinates,Original*%
%TF.FileFunction,Soldermask,Bot*%
%TF.FilePolarity,Negative*%
%FSLAX46Y46*%
G04 Gerber Fmt 4.6, Leading zero omitted, Abs format (unit mm)*
G04 Created by KiCad (PCBNEW (7.0.0)) date 2023-06-13 00:35:04*
%MOMM*%
%LPD*%
G01*
G04 APERTURE LIST*
G04 Aperture macros list*
%AMRoundRect*
0 Rectangle with rounded corners*
0 $1 Rounding radius*
0 $2 $3 $4 $5 $6 $7 $8 $9 X,Y pos of 4 corners*
0 Add a 4 corners polygon primitive as box body*
4,1,4,$2,$3,$4,$5,$6,$7,$8,$9,$2,$3,0*
0 Add four circle primitives for the rounded corners*
1,1,$1+$1,$2,$3*
1,1,$1+$1,$4,$5*
1,1,$1+$1,$6,$7*
1,1,$1+$1,$8,$9*
0 Add four rect primitives between the rounded corners*
20,1,$1+$1,$2,$3,$4,$5,0*
20,1,$1+$1,$4,$5,$6,$7,0*
20,1,$1+$1,$6,$7,$8,$9,0*
20,1,$1+$1,$8,$9,$2,$3,0*%
G04 Aperture macros list end*
%ADD10C,0.800000*%
%ADD11C,6.400000*%
%ADD12RoundRect,0.425000X0.425000X-0.425000X0.425000X0.425000X-0.425000X0.425000X-0.425000X-0.425000X0*%
G04 APERTURE END LIST*
D10*
%TO.C,H1*%
X146100000Y-99500000D03*
X146802944Y-97802944D03*
X146802944Y-101197056D03*
X148500000Y-97100000D03*
D11*
X148500000Y-99500000D03*
D10*
X148500000Y-101900000D03*
X150197056Y-97802944D03*
X150197056Y-101197056D03*
X150900000Y-99500000D03*
%TD*%
%TO.C,H2*%
X129100000Y-99500000D03*
X129802944Y-97802944D03*
X129802944Y-101197056D03*
X131500000Y-97100000D03*
D11*
X131500000Y-99500000D03*
D10*
X131500000Y-101900000D03*
X133197056Y-97802944D03*
X133197056Y-101197056D03*
X133900000Y-99500000D03*
%TD*%
D12*
%TO.C,J1*%
X133650000Y-90635000D03*
X133650000Y-89365000D03*
X136190000Y-90635000D03*
X136190000Y-89365000D03*
X138730000Y-90635000D03*
X138730000Y-89365000D03*
X141270000Y-90635000D03*
X141270000Y-89365000D03*
X143810000Y-90635000D03*
X143810000Y-89365000D03*
X146350000Y-90635000D03*
X146350000Y-89365000D03*
%TD*%
G36*
X140352038Y-99101201D02*
G01*
X140431008Y-99116909D01*
X140453539Y-99126242D01*
X140515268Y-99167489D01*
X140532510Y-99184731D01*
X140573757Y-99246460D01*
X140583090Y-99268990D01*
X140598799Y-99347961D01*
X140600000Y-99360155D01*
X140600000Y-100639845D01*
X140598799Y-100652039D01*
X140583090Y-100731009D01*
X140573757Y-100753539D01*
X140532510Y-100815268D01*
X140515268Y-100832510D01*
X140453539Y-100873757D01*
X140431009Y-100883090D01*
X140352039Y-100898799D01*
X140339845Y-100900000D01*
X139660155Y-100900000D01*
X139647961Y-100898799D01*
X139568990Y-100883090D01*
X139546460Y-100873757D01*
X139484731Y-100832510D01*
X139467489Y-100815268D01*
X139426242Y-100753539D01*
X139416909Y-100731008D01*
X139401201Y-100652038D01*
X139400000Y-100639845D01*
X139400000Y-99360155D01*
X139401201Y-99347962D01*
X139416909Y-99268991D01*
X139426242Y-99246460D01*
X139467489Y-99184731D01*
X139484731Y-99167489D01*
X139546460Y-99126242D01*
X139568991Y-99116909D01*
X139647962Y-99101201D01*
X139660155Y-99100000D01*
X140339845Y-99100000D01*
X140352038Y-99101201D01*
G37*
M02*
