%TF.GenerationSoftware,KiCad,Pcbnew,(7.0.0)*%
%TF.CreationDate,2023-06-10T23:20:28+02:00*%
%TF.ProjectId,TMP117 Breakout,544d5031-3137-4204-9272-65616b6f7574,rev?*%
%TF.SameCoordinates,Original*%
%TF.FileFunction,Profile,NP*%
%FSLAX46Y46*%
G04 Gerber Fmt 4.6, Leading zero omitted, Abs format (unit mm)*
G04 Created by KiCad (PCBNEW (7.0.0)) date 2023-06-10 23:20:28*
%MOMM*%
%LPD*%
G01*
G04 APERTURE LIST*
%TA.AperFunction,Profile*%
%ADD10C,0.100000*%
%TD*%
G04 APERTURE END LIST*
D10*
X128000000Y-89250000D02*
G75*
G03*
X127000000Y-90250000I0J-1000000D01*
G01*
X153000000Y-90250000D02*
G75*
G03*
X152000000Y-89250000I-1000000J0D01*
G01*
X127000000Y-90250000D02*
X127000000Y-99500000D01*
X153000000Y-90250000D02*
X153000000Y-99500000D01*
X128000000Y-89250000D02*
X152000000Y-89250000D01*
X131500000Y-104000000D02*
X148500000Y-104000000D01*
X127000000Y-99500000D02*
G75*
G03*
X131500000Y-104000000I4499998J-2D01*
G01*
X148500000Y-104000000D02*
G75*
G03*
X153000000Y-99500000I0J4500000D01*
G01*
X136000000Y-97500000D02*
X136000001Y-101499999D01*
X142500000Y-102000000D02*
G75*
G03*
X143000000Y-101500000I0J500000D01*
G01*
X137000000Y-101500000D02*
X137000000Y-97500000D01*
X137000000Y-101500000D02*
G75*
G03*
X137500000Y-102000000I500000J0D01*
G01*
X142499999Y-102999999D02*
G75*
G03*
X143999999Y-101499999I1J1499999D01*
G01*
X136000001Y-101499999D02*
G75*
G03*
X137500001Y-102999999I1499999J-1D01*
G01*
X143000000Y-101500000D02*
X143000000Y-97500000D01*
X142499999Y-102999999D02*
X137500001Y-102999999D01*
X142500000Y-96000000D02*
G75*
G03*
X142500000Y-97000000I0J-500000D01*
G01*
X143999999Y-97500001D02*
G75*
G03*
X142499999Y-96000001I-1499999J1D01*
G01*
X137500000Y-102000000D02*
X142500000Y-102000000D01*
X143999999Y-97500001D02*
X143999999Y-101499999D01*
X143000000Y-97500000D02*
G75*
G03*
X142500000Y-97000000I-500000J0D01*
G01*
X137500000Y-96000000D02*
G75*
G03*
X136000000Y-97500000I0J-1500000D01*
G01*
X137500000Y-97000000D02*
G75*
G03*
X137500000Y-96000000I0J500000D01*
G01*
X137500000Y-97000000D02*
G75*
G03*
X137000000Y-97500000I0J-500000D01*
G01*
M02*
